<?xml version="1.0" encoding="utf-8"?>
<!-- Generator: Adobe Illustrator 24.0.1, SVG Export Plug-In . SVG Version: 6.00 Build 0)  -->
<svg version="1.1" xmlns="http://www.w3.org/2000/svg" xmlns:xlink="http://www.w3.org/1999/xlink" x="0px" y="0px"
	 viewBox="0 0 1159 1328.2" style="enable-background:new 0 0 1159 1328.2;" xml:space="preserve">
<style type="text/css">
	.st0{fill:#231815;}
	.st1{font-family:'SourceHanSansK-Bold-KSCpc-EUC-H';}
	.st2{font-size:50.3209px;}
	.st3{font-family:'SourceHanSansK-Normal-KSCpc-EUC-H';}
	.st4{font-size:24px;}
	.st5{font-family:'SourceHanSansK-Regular-KSCpc-EUC-H';}
	.st6{font-size:22px;}
	.st7{fill:#595757;}
	.st8{font-family:'SourceHanSansK-Light-KSCpc-EUC-H';}
	.st9{font-size:20px;}
	.st10{font-family:'SourceHanSansK-Medium-KSCpc-EUC-H';}
	.st11{fill:none;stroke:#231815;stroke-miterlimit:10;}
	.st12{font-size:28.7949px;}
	.st13{clip-path:url(#SVGID_2_);}
	.st14{clip-path:url(#SVGID_4_);}
	.st15{fill:#202121;}
</style>
<g id="레이어_2">
</g>
<g id="레이어_1">
	<text transform="matrix(1 0 0 1 52.9761 218.7779)" class="st0 st1 st2">Jun Yong Tak</text>
	<text transform="matrix(1 0 0 1 59.4688 267.1139)" class="st0 st3 st4">전용탁</text>
	<text transform="matrix(1 0 0 1 59.4688 316.7264)" class="st0 st5 st6">“ 결과로 이야기하는 검증된 실력의 이혼전문변호사 ”</text>
	<text transform="matrix(1 0 0 1 69.4686 400.9844)" class="st7 st8 st9">· 대구 경신고등학교 졸업</text>
	<text transform="matrix(1 0 0 1 69.4686 432.9844)" class="st7 st8 st9">· 서울 한양대학교 법학과 졸업</text>
	<text transform="matrix(1 0 0 1 69.4686 464.9844)" class="st7 st8 st9">· 대구 경북대학교 법학전문대학원 졸업</text>
	<text transform="matrix(1 0 0 1 69.4686 496.9844)" class="st7 st8 st9">· 변호사 시험 합격(2013)</text>
	<text transform="matrix(1 0 0 1 69.4686 557.2155)" class="st7 st8 st9">· 대한변리사협회 변리사자격증 취득</text>
	<text transform="matrix(1 0 0 1 69.4686 589.2155)" class="st7 st8 st9">· 대구지방법원 국선변호인</text>
	<text transform="matrix(1 0 0 1 69.4686 621.2155)" class="st7 st8 st9">· 대구지방법원 서부지원 국선변호인</text>
	<text transform="matrix(1 0 0 1 69.4686 653.2155)" class="st7 st8 st9">· 現 LAWFIRM 그날 대표변호사</text>
	<text transform="matrix(1 0 0 1 69.4686 685.2155)" class="st7 st8 st9">· 대한변호사협회 이혼전문분야 등록</text>
	<text transform="matrix(1 0 0 1 69.4681 747.7961)" class="st7 st8 st9">· 대구광역시 여성정책위원회 위원</text>
	<text transform="matrix(1 0 0 1 69.4681 780.4163)" class="st7 st8 st9">· 대구출입국관리사무소 외국인 권익증진협의회 위원</text>
	<text transform="matrix(1 0 0 1 69.4681 813.0363)" class="st7 st8 st9">· 대구가정법원 위탁보호위원회 위원</text>
	<text transform="matrix(1 0 0 1 69.4681 845.6555)" class="st7 st8 st9">· 대구지방변호사회 이주여성 법률구조위원회 위원</text>
	<text transform="matrix(1 0 0 1 69.4681 878.2756)" class="st7 st8 st9">· 대구광역시 성폭력피해자 법률조력인</text>
	<text transform="matrix(1 0 0 1 69.4681 910.8958)" class="st7 st8 st9">· 경상북도 의성군 다문화가족지원센터 자문변호사</text>
	<text transform="matrix(1 0 0 1 69.4681 943.5159)" class="st7 st8 st9">· 대구광역시 다문화가족지원협의회 위원</text>
	<text transform="matrix(1 0 0 1 69.4681 976.136)" class="st7 st8 st9">· 주식회사 전진바이오팜 감사</text>
	<text transform="matrix(1 0 0 1 69.4681 1008.756)" class="st7 st8 st9">·現 대구경북기자협회 자문위원</text>
	<text transform="matrix(1 0 0 1 69.4681 1041.3762)" class="st7 st8 st9">· 2019년도 미스코리아 경북 공동심사위원장</text>
	<text transform="matrix(1 0 0 1 69.4681 1073.9961)" class="st7 st8 st9">· 푸른방송시청자위원회위원</text>
	<text transform="matrix(1 0 0 1 69.4685 1257.1716)" class="st7 st10 st9">· 위클리피플 사 주관 올해의 신지식인 전문위원으로 위촉</text>
	<line class="st11" x1="140.1" y1="261" x2="598" y2="261"/>
	<g>
		<text transform="matrix(1 0 0 1 69.7237 132.6675)" class="st0 st5 st12">대표 변호사</text>
	</g>
	<g>
		<text transform="matrix(1 0 0 1 213.998 144.1598)" class="st0 st5 st12">」</text>
	</g>
	<g>
		<text transform="matrix(1 0 0 1 48.5703 126.4694)" class="st0 st5 st12">「</text>
	</g>
	<g>
		<g>
			<defs>
				<rect id="SVGID_1_" x="675" y="336.1" width="574.5" height="995.6"/>
			</defs>
			<clipPath id="SVGID_2_">
				<use xlink:href="#SVGID_1_"  style="overflow:visible;"/>
			</clipPath>
			<g class="st13">
				
					<image style="overflow:visible;opacity:0.3;enable-background:new    ;" width="875" height="1332" xlink:href="9C79B82A.png"  transform="matrix(1 0 0 1 503 161)">
				</image>
				<g>
					<g>
						<g>
							<defs>
								<rect id="SVGID_3_" x="621.2" y="373.5" width="569.9" height="1082.4"/>
							</defs>
							<clipPath id="SVGID_4_">
								<use xlink:href="#SVGID_3_"  style="overflow:visible;"/>
							</clipPath>
							<g class="st14">
								
									<image style="overflow:visible;enable-background:new    ;" width="672" height="954" xlink:href="9C79B82E.png"  transform="matrix(1.3319 0 0 1.3319 445.5913 185.1445)">
								</image>
							</g>
						</g>
					</g>
				</g>
			</g>
		</g>
	</g>
	
		<image style="overflow:visible;" width="413" height="257" xlink:href="9C79B829.png"  transform="matrix(0.3537 0 0 0.3537 69.4683 1122.0568)">
	</image>
	<g>
		<g>
			<path class="st15" d="M650.2,1041.3C650.2,1041.3,650.3,1041.3,650.2,1041.3c0.1,0,0.1,0,0.2,0c0.4,0,1-0.1,1.7-0.2
				c0.7-0.1,1.2-0.2,1.7-0.4c0.4-0.1,0.8-0.3,1.1-0.4c0.3-0.2,0.6-0.3,0.8-0.5c0.6,0,1.1,0.1,1.7,0.1c0.5,0,1.1,0.1,1.6,0.1
				c0.6,0,1.2,0.1,1.8,0.2c0.6,0.1,1.1,0.2,1.5,0.3c0.6,0.1,1,0.3,1.4,0.6c0.4,0.3,0.5,0.7,0.5,1.3c0,0.4-0.1,0.8-0.3,1.1
				c-0.2,0.3-0.6,0.5-1.1,0.5c-0.2,0-0.7,0-1.4-0.1c-0.7-0.1-1.3-0.1-1.8-0.2c-0.8-0.1-1.8-0.1-3.1-0.2c-1.3,0-2.5-0.1-3.5-0.1
				h-21.3c-1.5,0-2.9,0-4.2,0.1c-1.3,0.1-2.3,0.1-2.9,0.2c-0.5,0-1.1,0.1-1.7,0.2c-0.6,0.1-1.1,0.2-1.5,0.4
				c-0.3,0.1-0.7,0.2-1.1,0.4c-0.4,0.2-0.8,0.4-1.1,0.5c-0.1,0-0.3,0-0.5-0.1c-0.3-0.1-0.5-0.2-0.7-0.3c-0.3-0.1-0.6-0.3-0.9-0.4
				c-0.3-0.2-0.7-0.3-1.2-0.5c-0.4-0.2-0.8-0.4-1.2-0.6c-0.4-0.2-0.8-0.4-1.1-0.6c-0.3-0.2-0.6-0.4-0.9-0.7
				c-0.3-0.2-0.5-0.5-0.5-0.7c0-0.2,0.1-0.4,0.2-0.5c0.2-0.1,0.4-0.1,0.6-0.1c0.5,0,1.1,0.1,1.8,0.2c0.7,0.1,1.4,0.1,2.1,0.2
				c1,0,2.3,0.1,3.7,0.1c1.4,0.1,2.9,0.1,4.4,0.1h20.5c0.6,0,1.1,0,1.6,0c0.5,0,0.9,0,1.3,0c0.2-1.2,0.4-2.5,0.7-4
				c0.2-1.5,0.4-2.8,0.6-4.1c0.2-1.2,0.4-2.9,0.6-5c0.3-2.1,0.5-3.9,0.6-5.3c0.2-1.4,0.3-3.1,0.5-5.1c0.2-2.1,0.3-3.9,0.4-5.5
				c0.1-1.2,0.2-2.6,0.2-4.1c0.1-1.6,0.1-2.8,0.2-3.8H636c-2.5,0-4.4,0.1-5.8,0.3c-1.4,0.2-2.4,0.4-3.1,0.6
				c-0.4,0.1-0.8,0.3-1.2,0.5c-0.4,0.2-0.8,0.4-1.1,0.5c-0.2,0-0.5-0.1-0.9-0.3c-0.5-0.2-0.9-0.4-1.4-0.5c-0.4-0.2-0.9-0.4-1.5-0.7
				c-0.6-0.3-1.1-0.5-1.5-0.7c-0.4-0.2-0.8-0.5-1.3-0.8c-0.5-0.3-0.7-0.6-0.7-0.9c0-0.3,0.1-0.5,0.3-0.6c0.2-0.1,0.4-0.1,0.6,0
				c0.4,0,0.8,0.1,1.4,0.2c0.6,0.1,1,0.1,1.4,0.1c0.5,0,1.4,0.1,2.6,0.2c1.3,0.1,3.2,0.1,5.7,0.1h21.7l1.2-0.9
				c0.6,0,1.1,0.1,1.5,0.1c0.4,0,0.9,0.1,1.3,0.1c0.4,0,0.8,0.1,1.1,0.3c0.3,0.2,0.5,0.4,0.5,0.7c0,0.3-0.1,0.6-0.3,1
				c-0.2,0.4-0.4,0.8-0.5,1.3c-0.1,1-0.3,2.3-0.4,3.9c-0.2,1.6-0.3,2.9-0.4,3.9c-0.2,1.3-0.4,2.9-0.6,4.8c-0.2,1.9-0.5,3.6-0.7,4.8
				c-0.2,1.2-0.5,2.8-0.8,4.7c-0.3,1.9-0.6,3.5-0.9,4.9c-0.2,1.3-0.6,2.8-1,4.6C650.9,1038.6,650.5,1040.1,650.2,1041.3z"/>
			<path class="st15" d="M620.2,1115.5c1-0.2,2.1-0.4,3.4-0.6c1.3-0.3,2.4-0.5,3.3-0.6c0.9-0.2,2-0.4,3.3-0.7
				c1.3-0.3,2.6-0.6,3.8-0.9c0.9-0.2,2-0.5,3.2-0.8c1.3-0.3,2.4-0.6,3.4-0.9c0.8-0.2,2-0.6,3.3-0.9c1.4-0.4,2.4-0.7,3.2-1
				c0.6-0.2,0.9-0.1,1,0.3c0.1,0.4-0.1,0.8-0.5,1.1c-0.7,0.3-1.7,0.7-3,1.2c-1.3,0.5-2.4,0.9-3.2,1.2c-1,0.4-2.2,0.8-3.5,1.2
				c-1.3,0.4-2.4,0.8-3.5,1.1c-1.2,0.4-2.5,0.8-3.9,1.2c-1.3,0.4-2.5,0.7-3.4,1c-1.1,0.3-2.3,0.6-3.8,1c-1.5,0.4-2.6,0.6-3.4,0.8
				c-0.4,0-1-0.3-1.8-0.9c-0.8-0.6-1.2-1.2-1.2-1.6v-18.7c0-0.3-0.1-0.5-0.2-0.8c-0.1-0.2-0.3-0.4-0.5-0.6c-0.2-0.2-0.4-0.4-0.7-0.5
				c-0.3-0.1-0.5-0.3-0.8-0.4c-0.3-0.1-0.6-0.3-0.9-0.4c-0.3-0.1-0.7-0.3-0.9-0.3c-0.3-0.1-0.6-0.2-0.9-0.3
				c-0.3-0.1-0.5-0.3-0.5-0.5c0-0.2,0.2-0.4,0.5-0.6c0.3-0.2,0.7-0.2,1.2-0.2c0.2,0,0.7,0,1.3,0.1c0.6,0.1,1.1,0.1,1.4,0.2
				c0.6,0.1,1.1,0.2,1.7,0.3c0.6,0.1,1.1,0.3,1.5,0.4c0.3,0.1,0.6,0.2,0.9,0.4c0.3,0.2,0.4,0.4,0.4,0.7c0,0.2-0.1,0.5-0.2,0.9
				c-0.1,0.4-0.2,0.9-0.2,1.3V1115.5z M650.7,1131.9l0.7-0.7v-6.5h-15.5c-1,0-2.1,0-3.3,0.1c-1.2,0-2.1,0.1-2.6,0.2
				c-0.5,0-1,0.1-1.4,0.2c-0.5,0.1-0.9,0.2-1.2,0.3c-0.3,0.1-0.5,0.2-0.7,0.4c-0.2,0.1-0.4,0.2-0.6,0.4c-0.1,0-0.3-0.1-0.6-0.2
				c-0.3-0.1-0.5-0.2-0.8-0.3c-0.2-0.1-0.5-0.2-0.8-0.3c-0.3-0.1-0.6-0.3-1-0.5c-0.3-0.2-0.7-0.3-1.1-0.5c-0.4-0.2-0.7-0.4-0.9-0.5
				c-0.2-0.2-0.5-0.4-0.8-0.6c-0.3-0.2-0.5-0.4-0.5-0.6c0-0.2,0.1-0.3,0.3-0.4c0.2-0.1,0.3-0.1,0.5-0.1c0.3,0,0.6,0.1,1.1,0.1
				c0.4,0,0.8,0.1,1.2,0.1c0.4,0,1.3,0.1,2.7,0.2c1.4,0.1,3.2,0.1,5.4,0.1h19.7l1.2-0.8c0.4,0,0.9,0.1,1.4,0.1c0.5,0,1,0.1,1.5,0.1
				c0.4,0,0.8,0.1,1,0.3c0.2,0.1,0.3,0.3,0.3,0.6c0,0.2-0.1,0.5-0.3,0.9c-0.2,0.4-0.4,0.8-0.5,1.2l-1.1,6.1c1.4,0.8,1.9,1.5,1.6,1.9
				c-0.3,0.4-0.8,0.6-1.2,0.6h-27.3v6.2c0,0.7,0.2,1.2,0.6,1.5c0.4,0.3,1.2,0.4,2.2,0.4h14.1c1.4,0,2.4,0,3.2-0.1
				c0.7-0.1,1.3-0.2,1.7-0.3c0.4-0.1,0.8-0.3,1.2-0.5c0.4-0.2,0.7-0.4,0.9-0.6c0.8,0,1.6,0.1,2.3,0.1c0.7,0,1.5,0.1,2.3,0.2
				c1.3,0.1,2.2,0.3,2.8,0.5c0.6,0.3,1,0.8,1,1.6c0,0.3-0.1,0.6-0.3,0.8c-0.2,0.2-0.6,0.3-1.2,0.3h-28.6c-1.4,0-2.7-0.2-3.8-0.6
				c-1.1-0.4-1.7-1.5-1.7-3.3v-5c0-0.3-0.1-0.6-0.4-0.9c-0.2-0.3-0.5-0.5-0.9-0.6c-0.3-0.2-0.6-0.3-1.1-0.4
				c-0.4-0.1-0.8-0.2-1.1-0.2c-0.3-0.1-0.6-0.2-0.9-0.2c-0.3-0.1-0.5-0.2-0.5-0.3c0-0.4,0.2-0.6,0.7-0.8c0.5-0.2,1-0.3,1.7-0.3
				c1.1,0,2.2,0,3.5,0.1c1.3,0.1,2.1,0.3,2.5,0.6H650.7z M655.8,1106.9c0.5,0,0.9-0.1,1.3-0.2c0.4-0.1,0.8-0.3,1.1-0.6
				c0.2-0.2,0.5-0.4,0.7-0.6c0.2-0.2,0.4-0.4,0.4-0.5c0.4,0,0.9,0.1,1.4,0.1c0.5,0,1,0.1,1.5,0.2c0.7,0.1,1.4,0.3,1.9,0.6
				c0.5,0.3,0.8,0.8,0.8,1.5c0,0.5-0.1,0.9-0.4,1.1c-0.3,0.2-0.6,0.3-1.1,0.3H655v0.4c0,0.6,0,1.2,0,1.8c0,0.7-0.1,1.3-0.1,1.8
				c0,0.6-0.1,1.3-0.1,2c0,0.7-0.1,1.2-0.1,1.4c0,0.3-0.1,0.7-0.2,1.2c-0.1,0.5-0.1,0.9-0.2,1.1c0,0.3-0.1,0.6-0.2,0.8
				c-0.1,0.3-0.2,0.5-0.3,0.7c-0.1,0.2-0.2,0.3-0.3,0.4c-0.1,0.1-0.3,0.2-0.3,0.2c-0.1,0-0.2,0-0.4-0.2c-0.1-0.1-0.2-0.2-0.3-0.4
				c-0.1-0.2-0.2-0.4-0.2-0.7c-0.1-0.2-0.1-0.5-0.2-0.7c0-0.2-0.1-0.5-0.1-0.8c0-0.3-0.1-0.7-0.1-1.2c0-0.6-0.1-1.5-0.1-2.5
				c0-1,0-1.8,0-2.3v-16.9c0-0.4-0.1-0.8-0.2-1.1c-0.1-0.3-0.2-0.6-0.4-0.8c-0.2-0.2-0.3-0.4-0.5-0.6c-0.2-0.2-0.4-0.4-0.7-0.5
				c-0.3-0.2-0.6-0.4-0.9-0.6c-0.3-0.2-0.6-0.3-0.9-0.5c-0.3-0.1-0.6-0.3-0.9-0.4c-0.3-0.1-0.6-0.3-0.8-0.3
				c-0.2-0.1-0.4-0.2-0.7-0.3c-0.3-0.1-0.4-0.3-0.4-0.5c0-0.2,0.2-0.4,0.5-0.5c0.3-0.1,0.7-0.2,1.1-0.2c0.2,0,0.8,0.1,1.6,0.2
				c0.8,0.1,1.5,0.3,2.2,0.4c0.5,0.1,1.1,0.3,1.6,0.4c0.5,0.2,1.1,0.3,1.7,0.5c0.4,0.2,0.8,0.3,1.2,0.5c0.4,0.2,0.5,0.5,0.5,0.8
				c0,0.2,0,0.4-0.1,0.6c-0.1,0.2-0.2,0.5-0.2,0.8c0,0.2-0.1,0.6-0.1,1c0,0.4-0.1,0.7-0.1,0.9v12H655.8z"/>
		</g>
		<g>
			<path class="st15" d="M575.2,995C575.2,995,575.2,995,575.2,995c0,0.1,0,0.1,0,0.1c0,0.1,0,0.2-0.1,0.3c0,0.1-0.1,0.2-0.1,0.3
				c0,0.1-0.1,0.2-0.1,0.2c-0.1,0.1-0.1,0.1-0.2,0.1c-0.1,0-0.1,0-0.2-0.1c0-0.1-0.1-0.2-0.1-0.2c0-0.1,0-0.2,0-0.3
				c0-0.1,0-0.3,0-0.4c0-0.1,0-0.3,0-0.6c0-0.3,0-0.5,0-0.6v-4.2c0-0.1,0-0.2-0.1-0.3c0-0.1-0.1-0.1-0.2-0.2
				c-0.1-0.1-0.1-0.1-0.2-0.2c-0.1-0.1-0.2-0.1-0.2-0.1c-0.1,0-0.1-0.1-0.2-0.1c-0.1,0-0.1-0.1-0.2-0.1c-0.1,0-0.1-0.1-0.2-0.1
				c-0.1,0-0.1-0.1-0.1-0.1c0-0.1,0-0.1,0.1-0.2c0.1,0,0.2-0.1,0.3-0.1c0.1,0,0.2,0,0.4,0c0.2,0,0.3,0.1,0.5,0.1
				c0.1,0,0.3,0.1,0.4,0.1c0.2,0,0.3,0.1,0.4,0.1c0.1,0,0.2,0.1,0.2,0.1c0.1,0.1,0.1,0.1,0.1,0.2c0,0,0,0.1,0,0.3
				c0,0.1-0.1,0.3-0.1,0.4v1h5v-1.7c0-0.1,0-0.2-0.1-0.3c0-0.1-0.1-0.1-0.2-0.2c-0.1-0.1-0.2-0.1-0.2-0.2c-0.1-0.1-0.2-0.1-0.2-0.1
				c-0.1,0-0.1-0.1-0.2-0.1c-0.1,0-0.2-0.1-0.2-0.1c-0.1,0-0.1-0.1-0.2-0.1c-0.1,0-0.1-0.1-0.1-0.1c0-0.1,0-0.1,0.1-0.2
				c0.1,0,0.2-0.1,0.3-0.1c0.1,0,0.2,0,0.4,0c0.2,0,0.4,0.1,0.6,0.1c0.1,0,0.2,0.1,0.4,0.1c0.2,0,0.3,0.1,0.4,0.1
				c0.1,0,0.2,0.1,0.3,0.1c0.1,0,0.1,0.1,0.1,0.2c0,0.1,0,0.1-0.1,0.3c0,0.1-0.1,0.3-0.1,0.5v4.1c0,0.2,0,0.3,0,0.5
				c0,0.2,0,0.4,0,0.5c0,0.2,0,0.4,0,0.6c0,0.2,0,0.4,0,0.5c0,0.1,0,0.2-0.1,0.3c0,0.1-0.1,0.2-0.1,0.3c0,0.1-0.1,0.1-0.1,0.2
				c-0.1,0.1-0.1,0.1-0.2,0.1c-0.1,0-0.1,0-0.2-0.1c0-0.1-0.1-0.2-0.1-0.2c0-0.1,0-0.2,0-0.3c0-0.1,0-0.2,0-0.3H575.2z M580.3,994
				c0-0.1,0-0.2,0-0.3v-2.6h-5v2c0,0.1,0,0.3,0,0.5c0,0.2,0,0.4,0,0.5c0,0,0,0.1,0,0.1c0,0.1,0,0.1,0,0.2h5.1
				C580.3,994.3,580.3,994.1,580.3,994z M577.5,1002.1c0,0.1,0,0.1,0,0.2c0,0.1,0,0.1,0,0.2c0,0.1,0,0.1-0.1,0.2
				c0,0.1-0.1,0.1-0.1,0.2c0,0-0.1,0.1-0.1,0.1c0,0-0.1,0-0.1,0c0,0-0.1,0-0.1,0s-0.1-0.1-0.1-0.1c0-0.1,0-0.1-0.1-0.2
				c0-0.1,0-0.1,0-0.2c0-0.1,0-0.2,0-0.3c0-0.1,0-0.3,0-0.4c0-0.1,0-0.3,0-0.5c0-0.3,0-0.5,0-0.7v-2.9c0-0.1,0-0.2-0.1-0.3
				c0-0.1-0.1-0.1-0.1-0.2c0,0-0.1-0.1-0.2-0.1c-0.1,0-0.1-0.1-0.2-0.1c-0.1,0-0.1-0.1-0.2-0.1c-0.1,0-0.1-0.1-0.2-0.1
				c-0.1,0-0.1-0.1-0.2-0.1c-0.1,0-0.1-0.1-0.1-0.1c0-0.1,0-0.1,0.1-0.2c0.1,0,0.2-0.1,0.2-0.1c0.1,0,0.2,0,0.4,0
				c0.2,0,0.3,0,0.5,0.1c0.1,0,0.3,0.1,0.4,0.1c0.1,0,0.3,0.1,0.4,0.1c0.1,0,0.2,0.1,0.2,0.1c0.1,0.1,0.1,0.1,0.1,0.2
				c0,0.1,0,0.1,0,0.2c0,0.1,0,0.2,0,0.4v0.5h7.5v-1c0-0.1,0-0.2-0.1-0.3c0-0.1-0.1-0.1-0.2-0.2c-0.1-0.1-0.1-0.1-0.2-0.2
				c-0.1,0-0.2-0.1-0.2-0.1c-0.1,0-0.2-0.1-0.2-0.1c-0.1,0-0.2-0.1-0.2-0.1c-0.1,0-0.1-0.1-0.2-0.1c-0.1,0-0.1-0.1-0.1-0.1
				c0-0.1,0-0.1,0.1-0.2c0.1,0,0.2-0.1,0.2-0.1c0.1,0,0.2,0,0.4,0c0.2,0,0.3,0.1,0.5,0.1c0.1,0,0.3,0.1,0.5,0.1
				c0.2,0,0.3,0.1,0.5,0.1c0.1,0,0.2,0.1,0.3,0.1c0.1,0.1,0.1,0.1,0.1,0.2c0,0,0,0.1-0.1,0.3c0,0.1-0.1,0.3-0.1,0.5v2.6
				c0,0.1,0,0.3,0,0.5c0,0.2,0,0.4,0,0.6c0,0.2,0,0.3,0,0.5c0,0.2,0,0.3,0,0.3c0,0.1,0,0.2,0,0.3c0,0.1,0,0.2-0.1,0.3
				c0,0.1,0,0.1-0.1,0.2c0,0.1-0.1,0.1-0.1,0.2c0,0.1-0.1,0.1-0.1,0.1c0,0-0.1,0-0.1,0c0,0-0.1,0-0.1-0.1c0,0-0.1-0.1-0.1-0.1
				c0-0.1,0-0.1-0.1-0.2c0-0.1,0-0.2-0.1-0.2c0-0.1,0-0.1,0-0.2c0-0.1,0-0.1,0-0.2H577.5z M585.1,1001.1c0-0.2,0-0.4,0-0.5v-1.7
				h-7.5v1.3c0,0.2,0,0.3,0,0.5c0,0.2,0,0.4,0,0.6c0,0.1,0,0.1,0,0.2c0,0.1,0,0.1,0,0.2h7.5C585.1,1001.4,585.1,1001.3,585.1,1001.1
				z M584.7,991.7c-0.3,0-0.5,0-0.8,0.1c-0.2,0-0.4,0.1-0.5,0.1c-0.1,0-0.2,0.1-0.3,0.1c-0.1,0-0.1,0.1-0.2,0.1
				c-0.1,0-0.1,0-0.3-0.1c-0.1-0.1-0.2-0.1-0.3-0.2c-0.1-0.1-0.2-0.1-0.3-0.2c-0.1-0.1-0.2-0.1-0.3-0.2c-0.1,0-0.1-0.1-0.2-0.2
				c-0.1-0.1-0.1-0.1-0.1-0.2c0-0.1,0-0.1,0.1-0.1c0,0,0.1,0,0.2,0c0.2,0,0.3,0,0.5,0c0.1,0,0.3,0,0.4,0c0.1,0,0.3,0,0.6,0
				c0.2,0,0.5,0,0.9,0h1.2v-2.7c0-0.1,0-0.2,0-0.3c0-0.1-0.1-0.2-0.1-0.2c0-0.1-0.1-0.1-0.2-0.2c-0.1-0.1-0.1-0.1-0.2-0.2
				c-0.1-0.1-0.2-0.1-0.3-0.2c-0.1-0.1-0.2-0.1-0.3-0.1c-0.1,0-0.2-0.1-0.3-0.1c-0.1,0-0.2-0.1-0.2-0.1c-0.1,0-0.1-0.1-0.2-0.1
				c-0.1,0-0.1-0.1-0.1-0.1c0-0.1,0-0.1,0.1-0.2c0.1,0,0.2-0.1,0.3-0.1c0.1,0,0.2,0,0.5,0.1c0.2,0,0.4,0.1,0.6,0.1
				c0.2,0,0.3,0.1,0.5,0.1c0.2,0,0.3,0.1,0.5,0.2c0.1,0,0.2,0.1,0.3,0.2c0.1,0.1,0.2,0.1,0.2,0.2c0,0.1,0,0.1,0,0.2
				c0,0.1,0,0.1-0.1,0.2c0,0.1,0,0.2,0,0.3c0,0.1,0,0.2,0,0.3v4c0,0.2,0,0.3,0,0.5c0,0.2,0,0.4,0,0.5c0,0.2,0,0.4,0,0.6
				c0,0.2,0,0.3,0,0.4c0,0.1,0,0.2,0,0.3c0,0.2,0,0.3-0.1,0.3c0,0.1,0,0.2-0.1,0.2c0,0.1-0.1,0.1-0.1,0.2c0,0-0.1,0.1-0.1,0.1
				c0,0-0.1,0-0.1,0c0,0-0.1,0-0.1,0c0,0-0.1-0.1-0.1-0.1c0-0.1,0-0.1-0.1-0.2c0-0.1,0-0.1,0-0.2c0-0.1,0-0.1,0-0.2
				c0-0.1,0-0.2,0-0.4c0-0.2,0-0.4,0-0.7c0-0.3,0-0.5,0-0.7v-1.5H584.7z"/>
			<path class="st15" d="M583.6,1016.1c0,0.2,0,0.3,0,0.5c0,0.2,0,0.4,0,0.5c0,0,0,0.1-0.1,0.3c0,0.2-0.1,0.3-0.2,0.4h0.9l0.3-0.2
				c0.1,0,0.3,0,0.4,0c0.1,0,0.3,0,0.4,0c0.1,0,0.2,0,0.3,0.1c0.1,0,0.1,0.1,0.1,0.2c0,0,0,0.1-0.1,0.3c-0.1,0.1-0.1,0.2-0.2,0.4
				l-0.3,1.5c0.4,0.2,0.6,0.4,0.5,0.6c-0.1,0.1-0.2,0.2-0.4,0.2h-8.4v1.5c0,0.2,0.1,0.3,0.2,0.4c0.1,0.1,0.3,0.1,0.7,0.1h4.5
				c0.4,0,0.7,0,0.9,0c0.2,0,0.4-0.1,0.5-0.1c0.1,0,0.2-0.1,0.3-0.1c0.1-0.1,0.2-0.1,0.2-0.2c0.2,0,0.4,0,0.6,0c0.2,0,0.4,0,0.7,0
				c0.4,0,0.6,0.1,0.8,0.2c0.2,0.1,0.3,0.2,0.3,0.4c0,0.1,0,0.2-0.1,0.3c-0.1,0.1-0.2,0.1-0.3,0.1h-8.7c-0.4,0-0.8-0.1-1.1-0.2
				c-0.3-0.1-0.5-0.4-0.5-1v-1.2c0-0.1,0-0.2-0.1-0.3c-0.1-0.1-0.2-0.1-0.3-0.2c-0.1-0.1-0.2-0.1-0.3-0.1c-0.1,0-0.2-0.1-0.3-0.1
				c-0.1,0-0.2,0-0.3-0.1c-0.1,0-0.1-0.1-0.1-0.1c0-0.1,0.1-0.2,0.2-0.2c0.1-0.1,0.3-0.1,0.5-0.1c0.3,0,0.6,0,1,0
				c0.4,0,0.6,0.1,0.7,0.2h7.3l0.2-0.2v-1.6h-5c-0.3,0-0.6,0-0.9,0c-0.3,0-0.6,0-0.8,0.1c-0.2,0-0.3,0-0.4,0.1
				c-0.1,0-0.2,0.1-0.3,0.1c-0.1,0-0.2,0.1-0.2,0.1c-0.1,0-0.1,0.1-0.2,0.1c0,0-0.1,0-0.1,0c-0.1,0-0.1,0-0.2-0.1
				c-0.1,0-0.2-0.1-0.3-0.1c-0.1,0-0.2-0.1-0.3-0.1c-0.1,0-0.2-0.1-0.3-0.1c-0.1-0.1-0.2-0.1-0.3-0.2c-0.1,0-0.2-0.1-0.3-0.2
				c-0.1-0.1-0.1-0.1-0.1-0.2c0-0.1,0-0.1,0.1-0.1c0.1,0,0.1,0,0.1,0c0.1,0,0.2,0,0.3,0c0.1,0,0.2,0,0.4,0c0.1,0,0.3,0,0.7,0
				c0.4,0,0.9,0,1.5,0c0-0.1-0.1-0.2-0.1-0.3c0-0.1,0-0.2-0.1-0.3c0-0.1,0-0.3,0-0.5c0-0.2,0-0.4,0-0.5v-0.6c-0.4,0-0.8,0-1.1,0.1
				c-0.3,0-0.6,0.1-0.7,0.1c-0.1,0-0.2,0.1-0.3,0.1c-0.1,0-0.2,0.1-0.3,0.1c0,0-0.1,0-0.3-0.1c-0.2-0.1-0.3-0.1-0.4-0.2
				c-0.1-0.1-0.3-0.1-0.4-0.2c-0.1-0.1-0.3-0.1-0.4-0.2c-0.1-0.1-0.2-0.1-0.3-0.2c-0.1-0.1-0.2-0.1-0.2-0.2c0-0.1,0-0.1,0.1-0.1
				c0.1,0,0.1,0,0.2,0c0.1,0,0.2,0,0.4,0c0.2,0,0.3,0,0.5,0.1c0.2,0,0.5,0,1,0.1c0.5,0,1,0,1.4,0h6.2c0.4,0,0.8,0,1.1,0
				c0.3,0,0.5,0,0.6,0c0.1,0,0.2,0,0.4-0.1c0.2,0,0.3-0.1,0.4-0.1c0.1,0,0.1-0.1,0.2-0.1c0.1,0,0.1-0.1,0.2-0.1c0.2,0,0.3,0,0.5,0
				c0.2,0,0.4,0,0.5,0c0.2,0,0.4,0,0.5,0.1c0.1,0,0.3,0.1,0.4,0.1c0.1,0,0.2,0.1,0.3,0.1c0.1,0.1,0.2,0.2,0.2,0.4
				c0,0.1,0,0.2-0.1,0.3c-0.1,0.1-0.2,0.1-0.3,0.1c-0.1,0-0.2,0-0.4,0c-0.1,0-0.3,0-0.4,0c-0.1,0-0.4,0-0.8,0c-0.4,0-0.7,0-1,0h-1.5
				V1016.1z M579.6,1008.9c-0.4,0-0.8,0-1.2,0c-0.4,0-0.7,0-0.8,0.1c-0.1,0-0.2,0-0.4,0.1c-0.1,0-0.3,0.1-0.4,0.1
				c-0.1,0-0.2,0.1-0.2,0.1c-0.1,0-0.1,0.1-0.2,0.1c0,0-0.1,0-0.2,0c-0.1,0-0.2,0-0.2-0.1c-0.1,0-0.2-0.1-0.3-0.1
				c-0.1,0-0.2-0.1-0.3-0.1c-0.1-0.1-0.2-0.1-0.3-0.2c-0.1,0-0.2-0.1-0.3-0.1c-0.1-0.1-0.2-0.1-0.3-0.2c-0.1-0.1-0.2-0.1-0.2-0.2
				c0-0.1,0-0.1,0.1-0.2c0.1,0,0.1,0,0.2,0c0.1,0,0.2,0,0.3,0c0.1,0,0.3,0,0.4,0c0.2,0,0.5,0,0.9,0c0.4,0,0.9,0,1.6,0h6.1l0.3-0.2
				c0.1,0,0.3,0,0.4,0c0.2,0,0.3,0,0.4,0c0.1,0,0.2,0,0.3,0.1c0.1,0,0.1,0.1,0.1,0.2c0,0,0,0.1-0.1,0.3c-0.1,0.1-0.1,0.2-0.1,0.4
				l-0.3,1.5c0.4,0.3,0.6,0.4,0.5,0.6c-0.1,0.1-0.2,0.2-0.3,0.2h-8.7v1.3c0,0.2,0.1,0.3,0.2,0.4c0.1,0.1,0.4,0.1,0.6,0.1h4.5
				c0.3,0,0.6,0,0.9,0c0.2,0,0.4,0,0.5-0.1c0.1,0,0.3-0.1,0.4-0.1c0.1-0.1,0.2-0.1,0.3-0.2c0.2,0,0.4,0,0.6,0c0.2,0,0.5,0,0.7,0
				c0.4,0,0.6,0.1,0.8,0.2c0.2,0.1,0.2,0.2,0.2,0.4c0,0.1,0,0.2-0.1,0.3c-0.1,0.1-0.2,0.1-0.3,0.1h-8.7c-0.4,0-0.8-0.1-1.2-0.2
				c-0.3-0.1-0.5-0.4-0.5-0.8v-1.1c0-0.1,0-0.2-0.1-0.3c-0.1-0.1-0.2-0.1-0.3-0.2c-0.1,0-0.2-0.1-0.3-0.1c-0.1,0-0.2-0.1-0.4-0.1
				c-0.1,0-0.2,0-0.2-0.1c-0.1,0-0.1-0.1-0.1-0.1c0-0.1,0.1-0.2,0.2-0.2c0.1-0.1,0.3-0.1,0.5-0.1c0.2,0,0.5,0,0.7,0
				c0.3,0,0.4,0,0.6,0.1c0.1,0,0.2,0,0.3,0.1c0.1,0,0.2,0.1,0.2,0.1h7.6l0.2-0.2v-1.6H579.6z M578.6,1015.6v0.5c0,0.2,0,0.3,0,0.5
				c0,0.2,0,0.4,0,0.5c0,0,0,0.1-0.1,0.3c0,0.2-0.1,0.3-0.1,0.4h4.5c0-0.1-0.1-0.2-0.1-0.3c0-0.1,0-0.2-0.1-0.3c0-0.1,0-0.3,0-0.5
				c0-0.2,0-0.4,0-0.5v-0.6H578.6z"/>
			<path class="st15" d="M577.5,1035.3c0.1,0.2,0.3,0.4,0.4,0.6c0.1,0.2,0.3,0.4,0.4,0.5c0.1,0.2,0.3,0.3,0.4,0.5
				c0.1,0.2,0.3,0.3,0.4,0.5c0.1,0.1,0.3,0.3,0.4,0.4c0.2,0.1,0.3,0.2,0.4,0.3c0.1,0.1,0.3,0.2,0.4,0.2c0.1,0.1,0.2,0.1,0.4,0.2
				c0.1,0.1,0.1,0.2,0.2,0.4c0.1,0.1,0.2,0.3,0.2,0.4c0.1,0.2,0.2,0.3,0.3,0.5c0.1,0.2,0.2,0.3,0.2,0.4c0.1,0.2,0.1,0.3,0.2,0.6
				c0.1,0.2,0.1,0.4,0,0.5c-0.1,0.1-0.1,0.1-0.2,0.1c-0.1,0-0.2-0.1-0.3-0.2c-0.2-0.2-0.3-0.3-0.5-0.6c-0.2-0.2-0.3-0.4-0.5-0.5
				c-0.2-0.2-0.4-0.5-0.6-0.7c-0.2-0.2-0.4-0.4-0.6-0.7c-0.2-0.2-0.4-0.4-0.5-0.6c-0.2-0.2-0.4-0.5-0.6-0.7
				c-0.1-0.2-0.3-0.3-0.5-0.6c-0.2-0.2-0.3-0.4-0.5-0.6c0,0,0,0,0,0c0,0,0,0,0,0c-0.1,0.3-0.3,0.5-0.4,0.8c-0.1,0.3-0.3,0.5-0.4,0.8
				c-0.2,0.3-0.3,0.5-0.5,0.8c-0.2,0.3-0.3,0.5-0.5,0.7c-0.2,0.3-0.4,0.5-0.5,0.7c-0.2,0.2-0.3,0.4-0.5,0.6
				c-0.2,0.2-0.4,0.4-0.5,0.6c-0.2,0.2-0.3,0.4-0.5,0.5c-0.1,0.1-0.2,0.1-0.3,0c-0.1-0.1-0.1-0.2,0-0.3c0.2-0.2,0.3-0.4,0.5-0.6
				c0.1-0.2,0.3-0.4,0.4-0.7c0.1-0.2,0.3-0.4,0.4-0.7c0.2-0.2,0.3-0.5,0.4-0.7c0.1-0.2,0.3-0.4,0.4-0.7c0.1-0.3,0.3-0.5,0.4-0.7
				c0.1-0.2,0.2-0.4,0.4-0.7c0.1-0.2,0.2-0.4,0.3-0.6c0.1-0.2,0.2-0.4,0.3-0.7c0.1-0.2,0.2-0.5,0.3-0.7c0.1-0.2,0.1-0.4,0.2-0.6
				c0.1-0.2,0.2-0.5,0.2-0.6c0.1-0.2,0.1-0.4,0.2-0.5c0.1-0.2,0.1-0.4,0.2-0.5c0-0.2,0.1-0.3,0.1-0.5c0.1-0.2,0.1-0.4,0.1-0.4
				c0-0.1-0.1-0.1-0.1-0.2c-0.1-0.1-0.2-0.1-0.2-0.2c-0.1-0.1-0.2-0.1-0.3-0.2c-0.1-0.1-0.2-0.1-0.3-0.2c0,0-0.1-0.1-0.2-0.1
				c-0.1,0-0.1-0.1-0.1-0.2c0-0.1,0-0.1,0.1-0.1c0.1,0,0.1,0,0.3,0c0.1,0,0.2,0,0.3,0c0.1,0,0.2,0.1,0.3,0.1c0.1,0,0.2,0.1,0.3,0.1
				c0.1,0,0.2,0.1,0.3,0.1c0.1,0,0.2,0.1,0.3,0.1c0.1,0,0.2,0.1,0.3,0.1c0.1,0.1,0.2,0.1,0.2,0.2c0.1,0.1,0.1,0.1,0.1,0.2
				c0,0.1-0.1,0.3-0.1,0.6c-0.1,0.3-0.1,0.5-0.2,0.7c-0.1,0.2-0.2,0.5-0.3,0.9c-0.1,0.4-0.2,0.7-0.3,1c-0.1,0.2-0.1,0.3-0.2,0.5
				C577.6,1035,577.5,1035.1,577.5,1035.3z M585.7,1036.4c0.1,0,0.3,0,0.4,0c0.1,0,0.2-0.1,0.3-0.2c0.1-0.1,0.1-0.1,0.2-0.2
				c0.1-0.1,0.1-0.1,0.1-0.2c0.1,0,0.3,0,0.4,0c0.2,0,0.3,0,0.4,0.1c0.2,0,0.4,0.1,0.5,0.2c0.1,0.1,0.2,0.2,0.2,0.4
				c0,0.2,0,0.3-0.1,0.3c-0.1,0.1-0.2,0.1-0.3,0.1h-2.4v4.1c0,0.2,0,0.5,0,0.9c0,0.3,0,0.6,0,0.8c0,0.3,0,0.6-0.1,0.9
				c0,0.2,0,0.4-0.1,0.5c0,0.1,0,0.3-0.1,0.4c0,0.1-0.1,0.2-0.1,0.2c0,0.1-0.1,0.1-0.1,0.2c0,0.1-0.1,0.1-0.1,0.1
				c-0.1,0-0.1,0-0.1-0.1c0-0.1-0.1-0.1-0.1-0.1c0-0.1,0-0.1,0-0.2c0-0.1,0-0.2,0-0.2c0-0.2,0-0.3,0-0.4c0-0.1,0-0.3,0-0.5
				c0-0.3,0-0.6,0-1c0-0.4,0-0.7,0-0.8v-11.1c0-0.1,0-0.2,0-0.3c0-0.1-0.1-0.2-0.1-0.2c0-0.1-0.1-0.1-0.2-0.2
				c-0.1-0.1-0.1-0.1-0.2-0.2c-0.1-0.1-0.2-0.1-0.3-0.2c-0.1,0-0.2-0.1-0.3-0.1c-0.1,0-0.2-0.1-0.3-0.1c-0.1,0-0.2-0.1-0.3-0.1
				c-0.1,0-0.1-0.1-0.2-0.1c-0.1,0-0.1-0.1-0.1-0.1c0-0.1,0-0.1,0.1-0.2c0.1,0,0.2-0.1,0.3-0.1c0.1,0,0.2,0,0.4,0
				c0.2,0,0.4,0.1,0.6,0.1c0.1,0,0.3,0.1,0.5,0.1c0.2,0,0.4,0.1,0.5,0.2c0.1,0,0.2,0.1,0.3,0.2c0.1,0.1,0.2,0.1,0.2,0.2
				c0,0,0,0.1,0,0.2c0,0.1,0,0.1-0.1,0.2c0,0.1,0,0.2,0,0.3c0,0.1,0,0.2,0,0.3v6.1H585.7z"/>
			<path class="st15" d="M581,1062.1c0,0.2,0,0.4,0,0.6c0,0.2,0,0.5,0,0.7c0,0.2,0,0.3,0,0.5c0,0.2,0,0.4,0,0.5c0,0.1,0,0.2,0,0.4
				c0,0.1,0,0.3-0.1,0.3c0,0.1,0,0.2-0.1,0.3c0,0.1-0.1,0.2-0.1,0.2c0,0-0.1,0.1-0.1,0.1c0,0-0.1,0.1-0.1,0.1c0,0-0.1,0-0.1-0.1
				c0,0-0.1-0.1-0.1-0.1c0,0,0-0.1,0-0.1c0-0.1,0-0.1,0-0.2c0-0.1,0-0.2,0-0.3c0-0.1,0-0.2,0-0.4c0-0.2,0-0.4,0-0.8
				c0-0.3,0-0.6,0-0.8v-3.9h-1.4c-0.7,0-1.3,0-1.7,0.1c-0.5,0.1-0.8,0.1-1.1,0.2c-0.1,0-0.3,0.1-0.4,0.1c-0.1,0-0.2,0.1-0.3,0.2
				c0,0-0.2,0-0.3-0.1c-0.2-0.1-0.3-0.1-0.5-0.2c-0.1-0.1-0.3-0.1-0.4-0.2c-0.1-0.1-0.3-0.1-0.4-0.2c-0.1-0.1-0.2-0.1-0.3-0.2
				c-0.1-0.1-0.1-0.1-0.1-0.2s0-0.1,0.1-0.1c0.1,0,0.1,0,0.2,0c0.1,0,0.3,0,0.5,0.1c0.2,0,0.4,0.1,0.5,0.1c0.2,0,0.5,0,1,0
				c0.5,0,0.9,0,1.4,0h5.8c0.6,0,1.1,0,1.5,0c0.4,0,0.6-0.1,0.8-0.1c0.2,0,0.3-0.1,0.4-0.1c0.1,0,0.2-0.1,0.3-0.2c0.2,0,0.4,0,0.6,0
				c0.2,0,0.4,0,0.6,0.1c0.2,0,0.3,0,0.5,0.1c0.1,0,0.3,0.1,0.4,0.1c0.1,0,0.2,0.1,0.3,0.1c0.1,0.1,0.1,0.2,0.1,0.3
				c0,0.1,0,0.2-0.1,0.3c0,0.1-0.2,0.2-0.3,0.1c-0.1,0-0.2,0-0.4,0c-0.2,0-0.3,0-0.5,0c-0.2,0-0.5,0-0.8,0c-0.4,0-0.7,0-1,0h-4
				V1062.1z M576.6,1056.5c0,0.1,0,0.1,0,0.2c0,0,0,0.1,0,0.2c0,0.1,0,0.1-0.1,0.2c0,0,0,0.1-0.1,0.1c-0.1,0.1-0.1,0.1-0.2,0.1
				c0,0-0.1,0-0.1-0.1c0,0-0.1-0.1-0.1-0.1c0,0,0-0.1,0-0.1c0-0.1,0-0.1-0.1-0.2c0-0.1,0-0.2,0-0.4c0-0.2,0-0.3,0-0.4
				c0-0.1,0-0.2,0-0.4c0-0.2,0-0.3,0-0.5l-0.1-3.6c0-0.1,0-0.2-0.1-0.2c0-0.1-0.1-0.1-0.1-0.2c-0.1,0-0.1-0.1-0.2-0.1
				c-0.1,0-0.1-0.1-0.2-0.1c-0.1,0-0.1,0-0.2-0.1c-0.1,0-0.2,0-0.2,0c0,0-0.1,0-0.2,0c-0.1,0-0.1-0.1-0.1-0.2c0-0.1,0-0.1,0.1-0.2
				c0.1,0,0.1-0.1,0.2-0.1c0.1,0,0.1,0,0.3-0.1c0.1,0,0.2,0,0.3,0c0.1,0,0.2,0,0.4,0c0.2,0,0.3,0,0.5,0c0.1,0,0.2,0,0.4,0.1
				c0.1,0,0.2,0,0.3,0.1c0,0,0,0,0.1,0c0,0,0,0,0.1,0.1h7.6l0.4-0.3c0.1,0,0.2,0,0.3,0c0.1,0,0.3,0,0.5,0c0.2,0,0.3,0,0.3,0.1
				c0.1,0,0.1,0.1,0.1,0.2c0,0,0,0.1,0,0.2c0,0.1-0.1,0.1-0.1,0.2c0,0.1,0,0.1-0.1,0.2c0,0.1,0,0.2-0.1,0.2l-0.4,4.1
				c0.1,0,0.2,0.1,0.3,0.2c0.1,0.1,0.2,0.2,0.2,0.3c0,0.1,0,0.1-0.1,0.2c0,0-0.1,0.1-0.3,0.1h-8.9
				C576.6,1056.3,576.6,1056.4,576.6,1056.5z M576.6,1054.9c0,0.1,0,0.2,0,0.4c0,0.2,0,0.3,0,0.5h7.7l0.3-0.2v-4.3h-7.9V1054.9z"/>
			<path class="st15" d="M582.6,1084.4c0.4,0,0.7,0,0.9,0c0.2,0,0.4,0,0.5,0c0.1,0,0.3,0,0.5-0.1c0.2,0,0.4-0.1,0.5-0.1
				c0.1,0,0.2-0.1,0.3-0.1c0.1,0,0.2-0.1,0.2-0.1c0.2,0,0.3,0,0.5,0c0.2,0,0.3,0,0.5,0c0.2,0,0.4,0,0.5,0.1c0.2,0,0.3,0.1,0.4,0.1
				c0.2,0,0.3,0.1,0.4,0.2c0.1,0.1,0.2,0.2,0.2,0.4c0,0.1,0,0.2-0.1,0.3c-0.1,0.1-0.2,0.1-0.3,0.1c-0.1,0-0.2,0-0.4,0
				c-0.2,0-0.4,0-0.5,0c-0.2,0-0.5,0-0.9-0.1c-0.4,0-0.7,0-1,0h-6.1c-0.4,0-0.8,0-1.2,0c-0.4,0-0.7,0-0.8,0.1c-0.1,0-0.3,0-0.5,0.1
				c-0.2,0-0.3,0.1-0.4,0.1c-0.1,0-0.2,0.1-0.3,0.1c-0.1,0.1-0.2,0.1-0.3,0.1c0,0-0.1,0-0.2,0c-0.1,0-0.1-0.1-0.2-0.1
				c-0.1,0-0.2-0.1-0.3-0.1c-0.1,0-0.2-0.1-0.3-0.2c-0.1-0.1-0.2-0.1-0.3-0.2c-0.1-0.1-0.2-0.1-0.3-0.2c-0.1-0.1-0.2-0.1-0.2-0.2
				c-0.1-0.1-0.1-0.1-0.1-0.2c0-0.1,0-0.1,0.1-0.1c0,0,0.1,0,0.2,0c0.1,0,0.3,0,0.5,0.1c0.2,0,0.4,0,0.6,0.1c0.3,0,0.7,0,1.1,0
				c0.4,0,0.8,0,1.3,0h3.4v-3.9c0-0.1,0-0.2-0.1-0.3c0-0.1-0.1-0.2-0.2-0.2c-0.1-0.1-0.1-0.1-0.2-0.2c-0.1-0.1-0.2-0.1-0.2-0.1
				c-0.1,0-0.2-0.1-0.3-0.1c-0.1,0-0.2-0.1-0.3-0.1c-0.1,0-0.1-0.1-0.2-0.1c-0.1,0-0.1-0.1-0.1-0.1c0-0.1,0-0.1,0.1-0.2
				c0.1,0,0.2-0.1,0.2-0.1c0.1,0,0.2,0,0.4,0c0.2,0,0.4,0.1,0.5,0.1c0.1,0,0.3,0.1,0.5,0.1c0.2,0.1,0.4,0.1,0.5,0.1
				c0.1,0,0.2,0.1,0.3,0.1c0.1,0,0.1,0.1,0.1,0.2c0,0,0,0.1-0.1,0.3c0,0.1-0.1,0.3-0.1,0.6v3.8H582.6z M580.1,1074.8
				c-0.2,0.2-0.4,0.4-0.6,0.6c-0.2,0.2-0.5,0.4-0.7,0.6c-0.3,0.2-0.6,0.5-0.9,0.7c-0.3,0.2-0.6,0.4-0.9,0.6
				c-0.3,0.2-0.6,0.3-0.9,0.5c-0.3,0.2-0.6,0.4-0.8,0.5c-0.2,0.1-0.5,0.2-0.8,0.4c-0.3,0.1-0.6,0.3-0.8,0.4c-0.2,0-0.3,0-0.3-0.1
				c-0.1-0.1,0-0.2,0.1-0.2c0.2-0.1,0.5-0.3,0.8-0.5c0.3-0.2,0.6-0.4,0.8-0.5c0.2-0.2,0.5-0.3,0.8-0.5c0.3-0.2,0.5-0.4,0.7-0.5
				c0.2-0.2,0.5-0.4,0.7-0.6c0.3-0.2,0.5-0.4,0.7-0.6c0.2-0.2,0.4-0.3,0.6-0.6c0.2-0.2,0.4-0.4,0.5-0.5c0.1-0.2,0.3-0.3,0.4-0.5
				c0.2-0.2,0.3-0.4,0.4-0.5c0.1-0.2,0.2-0.3,0.3-0.4c0.1-0.1,0.2-0.3,0.3-0.4c0,0-0.1-0.1-0.1-0.2c-0.1-0.1-0.1-0.1-0.2-0.2
				c-0.1-0.1-0.2-0.1-0.2-0.2c-0.1,0-0.2-0.1-0.2-0.1c-0.1,0-0.2-0.1-0.2-0.1c-0.1-0.1-0.1-0.1-0.1-0.1c0-0.1,0-0.1,0.1-0.1
				c0.1,0,0.2-0.1,0.3,0c0.1,0,0.2,0,0.4,0.1c0.1,0,0.3,0.1,0.4,0.1c0.1,0,0.3,0.1,0.4,0.1c0.1,0,0.2,0.1,0.3,0.1
				c0.1,0,0.2,0.1,0.4,0.2c0.1,0.1,0.2,0.2,0.2,0.2c0,0.1,0,0.2-0.1,0.3c-0.1,0.1-0.1,0.2-0.2,0.3c-0.1,0.1-0.1,0.3-0.2,0.4
				c-0.1,0.1-0.2,0.3-0.3,0.4c-0.1,0.1-0.2,0.2-0.2,0.3c-0.1,0.1-0.1,0.2-0.2,0.3c0.1,0.1,0.3,0.2,0.5,0.3c0.2,0.1,0.3,0.2,0.5,0.3
				c0.2,0.1,0.4,0.2,0.7,0.4c0.3,0.1,0.5,0.3,0.7,0.3c0.2,0.1,0.4,0.2,0.7,0.3c0.3,0.1,0.5,0.2,0.7,0.2c0.2,0,0.4,0.1,0.6,0.1
				c0.2,0,0.4,0.1,0.5,0.1c0.2,0.1,0.4,0.3,0.6,0.4c0.2,0.2,0.4,0.3,0.6,0.5c0.2,0.2,0.4,0.4,0.6,0.6c0.2,0.2,0.2,0.4,0.1,0.6
				c-0.1,0.1-0.2,0.2-0.3,0.2c-0.1,0-0.3-0.1-0.4-0.1c-0.2-0.1-0.3-0.2-0.6-0.3c-0.2-0.1-0.4-0.2-0.7-0.4c-0.3-0.2-0.6-0.3-0.9-0.5
				c-0.3-0.2-0.6-0.3-0.9-0.5c-0.3-0.2-0.6-0.4-0.9-0.5c-0.3-0.2-0.6-0.4-0.9-0.5c-0.3-0.2-0.5-0.3-0.8-0.5
				C580.6,1075.1,580.4,1074.9,580.1,1074.8z"/>
		</g>
	</g>
</g>
</svg>
