<?xml version="1.0" encoding="utf-8"?>
<!-- Generator: Adobe Illustrator 23.1.0, SVG Export Plug-In . SVG Version: 6.00 Build 0)  -->
<svg version="1.1" id="레이어_1" xmlns="http://www.w3.org/2000/svg" xmlns:xlink="http://www.w3.org/1999/xlink" x="0px"
	 y="0px" viewBox="0 0 350 45" style="enable-background:new 0 0 350 45;" xml:space="preserve">
<style type="text/css">
	.st0{fill:#FFFFFF;stroke:#FFFFFF;stroke-width:0.5;stroke-miterlimit:10;}
</style>
<g>
	<g>
		<path class="st0" d="M113.3,3.1h3.8v1.1h-3.8v1.9c0,1.4,0.1,1.9,1.1,3c0.7,0.8,1.8,1.9,3.1,3.1l-0.8,0.8c-1.2-1.2-2.1-2-2.8-2.8
			c-0.5-0.6-1-1.1-1.1-1.4h0c-0.1,0.3-0.8,1.1-1.3,1.7c-0.5,0.5-1.7,1.8-2.8,2.7l-0.8-0.8c1.1-1,2.2-2,3-2.9c1.1-1.3,1.3-2,1.3-3.3
			v-2h-3.9V3.1h3.9V0.7h1.3V3.1z M120.5,7h2.7v1.1h-2.7v9h-1.3V0.6h1.3V7z"/>
		<path class="st0" d="M132.5,8.3h-7.4V1.1h1.2v2.5h5V1.1h1.2V8.3z M126.3,7.2h5V4.7h-5V7.2z M137.8,10v4.1h-8.8v2h9.3v1.1h-10.5V13
			h8.8v-2h-8.9V10H137.8z M136.5,2.9V0.6h1.2V9h-1.2V7.1h-3V6h3V4h-3V2.9H136.5z"/>
		<path class="st0" d="M151.2,13.6c-3,0.3-5.1,0.4-10.7,0.4v-1.1c1.8,0,3.3,0,4.6,0v-2.1c-2-0.2-3.4-1.4-3.4-2.7V7.3
			c0-1.5,1.6-2.8,3.9-2.8c2.3,0,3.9,1.3,3.9,2.8V8c0,1.3-1.3,2.5-3.2,2.7v2c1.8-0.1,3.2-0.2,4.7-0.3L151.2,13.6z M146.3,2.5h4v1.1
			h-9.5V2.5h4.2V0.5h1.3V2.5z M143,7.4v0.5c0,0.9,1.1,1.8,2.7,1.8c1.6,0,2.7-0.9,2.7-1.8V7.4c0-0.9-1.1-1.8-2.7-1.8
			C144.1,5.7,143,6.5,143,7.4z M153.6,7.4h2.6v1.1h-2.6v8.5h-1.3V0.6h1.3V7.4z"/>
		<path class="st0" d="M168.1,10.3c-2.2,0.3-5.1,0.4-10.8,0.4V9.6c1.7,0,3.2,0,4.4,0V7.1h-3.3V1.4h7.9v1.1h-6.6V6h6.7v1.1H163v2.5
			c2.2-0.1,3.6-0.2,5-0.3L168.1,10.3z M161.3,15.8h9.7v1.1H160v-4.6h1.3V15.8z M170.5,13h-1.3V0.6h1.3V13z"/>
		<path class="st0" d="M183,6.9c-0.1,0.3-0.6,0.9-1.4,1.5C181,9,179.8,10,179,10.5l-0.8-0.9c1.1-0.8,2.2-1.6,3.1-2.5
			c0.9-0.9,1.1-1.5,1.1-2.5V2.8h-3.7V1.7h8.5v1.1h-3.5v1.8c0,1.1,0.1,1.5,1.3,2.6c0.6,0.5,1.6,1.2,2.6,1.9l-0.7,0.9
			c-0.7-0.5-1.6-1.1-2.1-1.6C183.8,7.7,183.1,7.1,183,6.9L183,6.9z M182.6,15.8h9.2v1.1h-10.5v-5.5h1.3V15.8z M190.2,5V0.6h1.3v11.8
			h-1.3V6.1h-3.4V5H190.2z"/>
		<path class="st0" d="M196,8.5c4.1,0,5.6,0,7.9-0.3l0.1,1.1c-2.1,0.3-4.3,0.3-9.2,0.3V5h5.9V2.5h-5.9V1.4h7.1v4.6H196V8.5z
			 M196.5,11.7h10.3v5.6h-1.3v-4.5h-9.1V11.7z M206.8,3.3h2.5v1.1h-2.5v2.2h2.5v1.1h-2.5v3h-1.2v-10h1.2V3.3z"/>
		<path class="st0" d="M225.6,13.7v1.1h-15.1v-1.1H225.6z M212.6,5.6c0-2.4,2.4-3.9,5.4-3.9c3,0,5.4,1.5,5.4,3.9v0.9
			c0,2.4-2.5,3.9-5.4,3.9c-3,0-5.4-1.5-5.4-3.9V5.6z M213.9,5.6v0.8c0,1.6,1.8,2.8,4.2,2.8c2.3,0,4.2-1.2,4.2-2.8V5.6
			c0-1.6-1.8-2.8-4.2-2.8C215.7,2.9,213.9,4,213.9,5.6z"/>
		<path class="st0" d="M239.7,1.9v4.9h-9.4v2.7h9.7v1.1h-5v3.1h6.9v1.1h-15.1v-1.1h6.9v-3.1h-4.7V5.7h9.4V3h-9.4V1.9H239.7z"/>
		<path class="st0" d="M6.8,38.5c1.9-0.1,3.4-0.2,4.9-0.3l0.1,1.1c-3,0.3-5.5,0.4-11,0.4v-1.1c1.8,0,3.3,0,4.7,0v-2.9h1.3V38.5z
			 M6.2,32.7c-0.1,0.2-0.4,0.5-1,1.1c-0.6,0.6-1.9,1.6-3.3,2.4l-0.8-0.9c1.4-0.9,2.8-1.9,3.4-2.6c0.9-0.8,0.9-1.4,0.9-2.3v-0.6H1.7
			v-1.1h3.9v-2.1h1.3v2.1h3.8v1.1H6.8v0.5c0,1,0.1,1.5,1,2.3c0.7,0.6,2.1,1.5,3.1,2.2l-0.7,0.9c-1-0.6-2.2-1.5-2.8-2
			C6.7,33.3,6.4,33,6.2,32.7L6.2,32.7z M14.3,43.1H13V26.6h1.3V43.1z"/>
		<path class="st0" d="M22.6,39.7v-6.3h1.3v6.3H32v1.1H16.8v-1.1H22.6z M27.7,37.4c0.4-2.2,0.6-4.2,0.6-6.6v-1.5h-9.6v-1.1h10.9v1.9
			c0,3-0.2,5.1-0.6,7.4L27.7,37.4z"/>
		<path class="st0" d="M44.6,39.1c-3,0.3-5.5,0.4-11,0.4v-1.1c5.2,0,8.1-0.1,10.9-0.4L44.6,39.1z M34.5,32.1v-0.9
			c0-2,1.9-3.5,4.3-3.5s4.3,1.5,4.3,3.5v0.9c0,1.9-1.9,3.5-4.3,3.5S34.5,34,34.5,32.1z M35.7,31.3V32c0,1.4,1.5,2.4,3.1,2.4
			s3.1-1.1,3.1-2.4v-0.7c0-1.4-1.5-2.4-3.1-2.4S35.7,29.9,35.7,31.3z M47.1,43.1h-1.3V26.6h1.3V43.1z"/>
		<path class="st0" d="M62.6,30.4h3.9v-3.7h1.3v8.5h-1.3v-3.7h-3.9v3.1h-7.5v-7.2h1.2v2.5h5v-2.5h1.2V30.4z M56.4,33.5h5V31h-5V33.5
			z M67.8,36.1v7h-10v-7H59v2.3h7.6v-2.3H67.8z M66.5,41.9v-2.4H59v2.4H66.5z"/>
		<path class="st0" d="M85.6,34.3v1.1h-4.3v1.7h2.1v3.6H74v1.5h9.9v1.1H72.7v-3.6h9.4v-1.5h-9.5v-1.1h2.2v-1.7h-4.3v-1.1H85.6z
			 M72.7,27.1h10.6v3.5h-9.3v1.4h9.7V33H72.7v-3.5H82v-1.4h-9.4V27.1z M76,37.1h4v-1.7h-4V37.1z"/>
		<path class="st0" d="M95.6,31.7v-3.9H97v3.8c0,1.4,0.1,2,1.1,3.1c0.7,0.8,1.8,1.9,3.1,3.1l-0.8,0.9c-1.1-1.1-2.1-2.1-2.9-2.8
			c-0.5-0.6-1.1-1.2-1.2-1.4h0c-0.1,0.2-0.7,1.1-1.3,1.7c-0.6,0.7-1.8,1.9-2.9,2.8l-0.8-0.9c1.2-1,2.2-2,3-3
			C95.5,33.8,95.6,33.1,95.6,31.7z M105,43.1h-1.3V33h-3.9v-1.2h3.9v-5.2h1.3V43.1z"/>
		<path class="st0" d="M116.6,38.7H109V28h1.3v4.1h5V28h1.3V38.7z M110.3,37.6h5v-4.4h-5V37.6z M121.4,43.1h-1.3V26.6h1.3V43.1z"/>
		<path class="st0" d="M139.2,39.7v1.1h-15.1v-1.1H139.2z M131.7,32.6c-0.1,0.4-0.8,1-2.1,1.8c-1.1,0.7-2.6,1.6-3.9,2.3l-0.7-1
			c1.6-0.8,3-1.6,3.8-2.2c1.8-1.2,2.2-1.8,2.2-3.7v-2h1.3v2c0,1.9,0.4,2.5,2.2,3.7c0.8,0.6,2.2,1.4,3.8,2.2l-0.7,1
			c-1.3-0.7-2.7-1.6-3.8-2.3C132.5,33.5,131.8,32.9,131.7,32.6L131.7,32.6z"/>
		<path class="st0" d="M155.6,34.5v1.1h-15.1v-1.1H155.6z M153.4,37v3.6H144v1.5h9.9v1.1h-11.1v-3.6h9.4v-1.5h-9.5V37H153.4z
			 M142.7,27.1h10.6v3.5H144v1.4h9.7v1.1h-10.9v-3.5h9.3v-1.4h-9.4V27.1z"/>
		<path class="st0" d="M161.9,28.3h7.2v1.1h-2.9v2.4c0,1.7,0.2,2.3,1.1,3.4c0.6,0.7,1.5,1.7,2.5,2.7l-0.8,0.8
			c-0.8-0.8-1.7-1.9-2.4-2.6c-0.5-0.6-0.9-1.2-1-1.4h0c-0.1,0.2-0.4,0.7-0.9,1.4c-0.7,0.8-1.5,1.7-2.6,2.8l-0.8-0.8
			c1.1-1,2.1-2.2,2.7-2.9c0.9-1.1,1-1.8,1-3.4v-2.4h-3V28.3z M171.1,32.2V27h1.3v15.3h-1.3v-8.9h-2.9v-1.2H171.1z M175.5,43.1h-1.3
			V26.6h1.3V43.1z"/>
		<path class="st0" d="M183.8,34.4v-3.5h1.3v3.5h7.8v1.1h-15.1v-1.1H183.8z M190.6,27.4V29c0,1.3-0.2,3-0.5,4.1l-1.3-0.1
			c0.3-1.3,0.5-2.8,0.5-4v-0.6h-9.6v-1.1H190.6z M190.4,39.9v0.6c0,1.9-2.4,2.9-5.1,2.9c-2.7,0-5.1-1-5.1-2.9v-0.6
			c0-1.9,2.4-2.9,5.1-2.9C188,37,190.4,38.1,190.4,39.9z M189.2,40.5V40c0-1.2-1.9-1.9-3.9-1.9s-3.9,0.7-3.9,1.9v0.5
			c0,1.2,1.9,1.9,3.9,1.9S189.2,41.7,189.2,40.5z"/>
		<path class="st0" d="M198.4,29.2v-2.5h1.3v2.5h4.1v1.1h-9.5v-1.1H198.4z M195.1,35.9v-1c0-1.7,1.4-3.4,3.9-3.4
			c2.5,0,3.9,1.7,3.9,3.4v1c0,1.7-1.4,3.4-3.9,3.4C196.5,39.3,195.1,37.6,195.1,35.9z M196.3,35v0.8c0,1.4,1.1,2.4,2.7,2.4
			c1.6,0,2.7-1,2.7-2.4V35c0-1.4-1.1-2.4-2.7-2.4C197.4,32.7,196.3,33.7,196.3,35z M207,33.4h2.7v1.1H207v8.6h-1.3V26.6h1.3V33.4z"
			/>
		<path class="st0" d="M225.6,35.2v1.1h-15.1v-1.1H225.6z M214,41.8h9.7v1.1h-11V38h1.3V41.8z M214.1,31.8h9.4v1.1h-10.7v-5.6h1.3
			V31.8z"/>
		<path class="st0" d="M239.9,30.4h3.9v-3.7h1.3v8.5h-1.3v-3.7h-3.9v3.1h-7.5v-7.2h1.2v2.5h5v-2.5h1.2V30.4z M233.7,33.5h5V31h-5
			V33.5z M245.1,36.1v7h-10v-7h1.2v2.3h7.6v-2.3H245.1z M243.8,41.9v-2.4h-7.6v2.4H243.8z"/>
		<path class="st0" d="M262.9,34.3v1.1h-4.3v1.7h2.1v3.6h-9.4v1.5h9.9v1.1H250v-3.6h9.4v-1.5h-9.5v-1.1h2.2v-1.7h-4.3v-1.1H262.9z
			 M250,27.1h10.6v3.5h-9.3v1.4h9.7V33H250v-3.5h9.3v-1.4H250V27.1z M253.3,37.1h4v-1.7h-4V37.1z"/>
		<path class="st0" d="M268.3,31.7v-3.9h1.3v3.8c0,1.4,0.1,2,1.1,3.1c0.7,0.8,1.8,1.9,3.1,3.1l-0.8,0.9c-1.1-1.1-2.1-2.1-2.9-2.8
			c-0.5-0.6-1.1-1.2-1.2-1.4h0c-0.1,0.2-0.7,1.1-1.3,1.7c-0.6,0.7-1.8,1.9-2.9,2.8l-0.8-0.9c1.2-1,2.2-2,3-3
			C268.2,33.8,268.3,33.1,268.3,31.7z M276.9,32.8h2.8v1.1h-2.8v9.2h-1.3V26.6h1.3V32.8z"/>
		<path class="st0" d="M295.7,36.3v1.1h-6.9v5.7h-1.3v-5.7h-6.9v-1.1H295.7z M293.4,27.6V34h-10.6v-6.4H293.4z M284,32.9h8.1v-4.2
			H284V32.9z"/>
		<path class="st0" d="M303.8,39.7v-3.8h1.3v3.8h6.9v1.1h-15.1v-1.1H303.8z M304.5,32.3c-0.1,0.4-0.8,1-2.1,1.8
			c-1.1,0.7-2.6,1.6-3.9,2.3l-0.7-1c1.6-0.8,3-1.6,3.8-2.2c1.8-1.2,2.2-1.8,2.2-3.7v-1.7h1.3v1.7c0,1.9,0.4,2.5,2.2,3.7
			c0.8,0.6,2.2,1.4,3.8,2.2l-0.7,1c-1.3-0.7-2.7-1.6-3.8-2.3C305.3,33.2,304.7,32.6,304.5,32.3L304.5,32.3z"/>
		<path class="st0" d="M332.9,39.7v1.1h-15.1v-1.1H332.9z M328.5,37.9c0.5-2.3,0.7-4.3,0.7-6.8v-1.7h-9.5v-1.1h10.8v2.2
			c0,3-0.2,5.4-0.7,7.7L328.5,37.9z"/>
		<path class="st0" d="M336.4,27.3v5.3c3.5,0,5-0.1,7.8-0.4l0.1,1.1c-2.8,0.4-4.3,0.5-9.2,0.5v-6.4H336.4z M347.1,35.6v4.3h-8.7v2.1
			h9.1v1.1h-10.4v-4.3h8.7v-2.1h-8.8v-1.1H347.1z M347.1,30h2.5v1.1h-2.5v3.6h-1.3v-8h1.3V30z"/>
	</g>
</g>
<g>
</g>
<g>
</g>
<g>
</g>
<g>
</g>
<g>
</g>
<g>
</g>
<g>
</g>
<g>
</g>
<g>
</g>
<g>
</g>
<g>
</g>
<g>
</g>
<g>
</g>
<g>
</g>
<g>
</g>
</svg>
