<?xml version="1.0" encoding="utf-8"?>
<!-- Generator: Adobe Illustrator 23.1.0, SVG Export Plug-In . SVG Version: 6.00 Build 0)  -->
<svg version="1.1" id="레이어_1" xmlns="http://www.w3.org/2000/svg" xmlns:xlink="http://www.w3.org/1999/xlink" x="0px"
	 y="0px" viewBox="0 0 280 64" style="enable-background:new 0 0 280 64;" xml:space="preserve">
<style type="text/css">
	.st0{fill:#E9E9E9;}
	.st1{fill:#CB8B0D;}
</style>
<g>
	<g>
		<path class="st0" d="M13.4,13.6c0.6,0.8,0.9,1.7,0.9,2.7c0,1.6-0.6,2.9-1.9,4.1c-1.3,1.1-2.8,1.7-4.7,1.7c-1.8,0-3.4-0.6-4.7-1.7
			c-1.3-1.1-1.9-2.6-1.8-4.4h3.2c-0.1,0.9,0.2,1.6,0.8,2.2c0.6,0.6,1.4,0.9,2.5,0.9c1,0,1.8-0.3,2.3-0.8s0.9-1.2,1-2
			c0-0.6-0.1-1.2-0.5-1.7c-0.4-0.5-0.9-0.9-1.6-1.1c-0.5-0.1-0.9-0.2-1.3-0.2c-0.4,0-0.8,0-1.2,0v-2.9c0.5,0,1,0,1.5-0.1
			c0.4-0.1,0.8-0.2,1.2-0.4C9.5,9.7,9.8,9.4,10,9.1s0.4-0.8,0.4-1.3c0-0.6-0.1-1.1-0.6-1.7S8.7,5.1,7.7,5.1C6.7,5.1,6,5.4,5.5,6
			C5.1,6.6,4.8,7.2,4.9,8H1.7C1.7,6.4,2.2,5.1,3.4,4C4.5,2.9,6,2.3,7.7,2.3c1.8,0,3.2,0.5,4.4,1.6c1.1,1.1,1.7,2.3,1.7,3.7
			c0,1.1-0.3,2.1-0.8,2.8c-0.6,0.7-1.1,1.2-1.7,1.4C12.1,12.2,12.8,12.8,13.4,13.6z"/>
		<path class="st0" d="M23.7,13.3c-1.3,2.7-3.3,4.9-5.8,6.5L15.4,18c2-1.2,3.6-2.9,4.8-5c1.2-2.1,1.9-4.2,1.9-6.4h-5.3V3.8h9
			C25.7,7.4,25,10.6,23.7,13.3z M32.7,23.3V12.7h-1.8v9.6h-3.2V1.8h3.2v7.7h1.8V1.3h3.2v22H32.7z"/>
		<path class="st0" d="M59.6,16.4v6.9h-3.4v-6.9h-9.3v-2.9h22v2.9H59.6z M49.6,11.7V1.6H53V4h9.9V1.6h3.4v10.1H49.6z M62.9,6.8H53
			v2.1h9.9V6.8z"/>
		<path class="st0" d="M83.1,14.7v4h-3.4v-4h-9.7v-2.8h22v2.8H83.1z M72.5,10.2V1.9h16.9v8.3H72.5z M72.5,22.8v-6.3h3.5v3.5h14.2
			v2.9H72.5z M86,4.7H75.9v2.7H86V4.7z"/>
		<path class="st1" d="M101.7,20.9v-2.9h22v2.9H101.7z M104.4,14.7V2.4h3.3v3.3h9.8V2.4h3.3v12.3H104.4z M117.6,8.7h-9.8v3.2h9.8
			V8.7z"/>
		<path class="st1" d="M133.1,14.7c-1.3,0.1-2.4,0.1-3.4,0.1h-3.9V7.4h5.4v-2h-5.4V2.5h8.8v7.7h-5.4V12h1.8c0.9,0,1.8,0,2.7-0.1
			c0.9-0.1,1.7-0.1,2.3-0.2v2.8C135.4,14.6,134.4,14.6,133.1,14.7z M128.7,22.8v-6.6h3.4v3.8h13.7v2.9H128.7z M142,17.5v-6.9h-1.8
			V17H137V1.7h3.2v5.9h1.8V1.3h3.2v16.2H142z"/>
		<path class="st1" d="M147.7,20.9v-2.8h22v2.8H147.7z M150.4,14.3V3.2h16.8v2.9h-13.4v5.3h13.5v2.9H150.4z"/>
		<path class="st1" d="M188.4,18.5c-1,0.1-2.3,0.2-4,0.2h-3.3V3.8h8v2.9h-4.7v9.1h1.5c0.8,0,1.7-0.1,2.6-0.2
			c0.9-0.1,1.5-0.2,1.8-0.3v2.8C190,18.2,189.4,18.3,188.4,18.5z M196.8,23.3V12.8h-2v9.5h-3.2V1.8h3.2v7.6h2V1.3h3.2v22H196.8z"/>
		<path class="st1" d="M215.2,13.3c-0.9-0.4-1.9-1-2.9-1.7c-1-0.7-1.8-1.5-2.5-2.5c-0.5,1-1.3,1.8-2.2,2.6c-0.9,0.8-1.9,1.5-2.9,2
			l-2.4-2.3c1.5-0.6,2.8-1.6,4-2.9s1.8-2.7,1.8-4V1.9h3.6v2.6c0,1.4,0.6,2.7,1.8,3.9c1.2,1.2,2.5,2,3.8,2.4L215.2,13.3z M221,15.6
			c1.5,0.9,2.2,2,2.2,3.4c0,1.3-0.7,2.5-2.2,3.3c-1.5,0.9-3.6,1.3-6.5,1.3c-2.8,0-5-0.4-6.4-1.3c-1.5-0.9-2.2-2-2.2-3.3
			c0-1.3,0.7-2.5,2.2-3.3c1.5-0.9,3.6-1.3,6.4-1.3C217.4,14.3,219.5,14.7,221,15.6z M218.2,17.5c-0.9-0.3-2.1-0.5-3.6-0.5
			c-1.5,0-2.7,0.2-3.7,0.5c-0.9,0.3-1.4,0.8-1.4,1.4c0,0.6,0.5,1,1.4,1.4c0.9,0.3,2.1,0.5,3.7,0.5c1.5,0,2.7-0.2,3.6-0.5
			c0.9-0.3,1.3-0.8,1.3-1.4C219.5,18.4,219.1,17.9,218.2,17.5z M222.3,9.1v5H219V1.3h3.3v4.9h2.9v2.9H222.3z"/>
		<path class="st0" d="M246.9,15.6v7.8h-3.5v-7.8h-9.2v-2.9h22v2.9H246.9z M253.1,11.1c-1-0.2-2.4-0.7-4.1-1.4
			c-1.7-0.8-3-1.7-3.8-2.9c-0.9,1.3-2.2,2.3-3.9,3c-1.6,0.7-3,1.1-4,1.3l-1.9-2.3c2.3-0.6,4.2-1.4,5.7-2.4c1.5-1,2.2-2.4,2.2-4V1.3
			h3.8v1.1c0,2,1,3.4,2.9,4.4c1.9,1,3.6,1.6,5,2L253.1,11.1z"/>
		<path class="st0" d="M270,13.3c-0.9-0.4-1.9-1-2.9-1.7c-1-0.7-1.8-1.5-2.5-2.5c-0.5,1-1.3,1.8-2.2,2.6c-0.9,0.8-1.9,1.5-2.9,2
			l-2.4-2.3c1.5-0.6,2.8-1.6,4-2.9s1.8-2.7,1.8-4V1.9h3.6v2.6c0,1.4,0.6,2.7,1.8,3.9c1.2,1.2,2.5,2,3.8,2.4L270,13.3z M275.8,15.6
			c1.5,0.9,2.2,2,2.2,3.4c0,1.3-0.7,2.5-2.2,3.3c-1.5,0.9-3.6,1.3-6.5,1.3c-2.8,0-5-0.4-6.4-1.3c-1.5-0.9-2.2-2-2.2-3.3
			c0-1.3,0.7-2.5,2.2-3.3c1.5-0.9,3.6-1.3,6.4-1.3C272.1,14.3,274.3,14.7,275.8,15.6z M272.9,17.5c-0.9-0.3-2.1-0.5-3.6-0.5
			c-1.5,0-2.7,0.2-3.7,0.5c-0.9,0.3-1.4,0.8-1.4,1.4c0,0.6,0.5,1,1.4,1.4c0.9,0.3,2.1,0.5,3.7,0.5c1.5,0,2.7-0.2,3.6-0.5
			c0.9-0.3,1.3-0.8,1.3-1.4C274.3,18.4,273.8,17.9,272.9,17.5z M277.1,9.1v5h-3.3V1.3h3.3v4.9h2.9v2.9H277.1z"/>
		<path class="st0" d="M5.7,57.8c0-1.2,0.2-2.5,0.7-3.9c0.5-1.4,1.5-2.7,3.3-4l3.2-2.4c0.5-0.4,1-0.8,1.5-1.3c0.5-0.5,0.7-1.2,0.8-2
			c0-0.8-0.2-1.5-0.7-2.1c-0.5-0.6-1.2-0.9-2.2-0.9c-1,0-1.8,0.3-2.3,1s-0.8,1.5-0.7,2.5H6c-0.1-1.5,0.4-3,1.5-4.3s2.7-2,4.8-2
			c2,0,3.5,0.6,4.5,1.8c1,1.2,1.6,2.5,1.6,4c0,1.5-0.4,2.6-1.1,3.5c-0.7,0.8-1.5,1.5-2.2,2.1l-3.6,2.8c-0.5,0.4-0.9,0.8-1.2,1.3
			s-0.6,0.9-0.7,1.4l9,0l0,2.7H5.7z"/>
		<path class="st0" d="M31.1,50.2c-1.4,0.2-3,0.2-4.7,0.3H21V38.1h3.3v9.5l2.9,0c1,0,2.2-0.1,3.7-0.2c1.5-0.1,2.5-0.3,3.2-0.4v2.8
			C33.5,49.9,32.5,50,31.1,50.2z M23.4,58.8v-7h3.4v4.1h13.4v2.9H23.4z M36.3,53.2v-7.2h-5.8v-2.7h5.8V42h-5.8v-2.7h5.8v-2h3.3v15.9
			H36.3z"/>
		<path class="st0" d="M68.4,53.2v-5.8h-4.7c-0.6,0.7-1.3,1.2-2.2,1.7c-0.9,0.4-1.9,0.6-2.9,0.6c-1.9,0-3.4-0.6-4.6-1.8
			c-1.2-1.2-1.8-2.6-1.8-4.2c0-1.6,0.6-3,1.8-4.2c1.2-1.2,2.7-1.8,4.6-1.8c1,0,1.9,0.2,2.7,0.5c0.8,0.3,1.5,0.8,2.1,1.4h5v-2.3h3.4
			v15.9H68.4z M55.5,58.8v-7.3h3.4v4.5h13.4v2.9H55.5z M56.4,41.5c-0.5,0.6-0.8,1.4-0.8,2.2c0,0.8,0.3,1.5,0.8,2.2s1.3,1,2.2,1
			c1,0,1.7-0.3,2.3-1c0.5-0.6,0.8-1.4,0.8-2.2c0-0.8-0.3-1.6-0.8-2.2c-0.5-0.6-1.3-0.9-2.3-0.9C57.6,40.6,56.9,40.9,56.4,41.5z
			 M68.4,42.5h-3.5c0,0.2,0.1,0.4,0.1,0.6s0,0.4,0,0.6c0,0.1,0,0.3,0,0.4c0,0.1,0,0.3-0.1,0.4h3.4V42.5z"/>
		<path class="st0" d="M74.3,50.8v-2.9h9.2v-2.6h3.6v2.6h9.2v2.9H74.3z M93,46.4c-1.4-0.2-2.9-0.8-4.5-1.7c-1.6-0.9-2.7-1.7-3.2-2.6
			c-0.6,0.9-1.7,1.7-3.1,2.5c-1.4,0.8-3,1.4-4.6,1.7l-1.9-2.3c2-0.4,3.7-1.2,5.3-2.2c1.6-1.1,2.4-2.3,2.4-3.7v-1h3.8v1
			c0,1.4,0.8,2.6,2.4,3.7s3.4,1.8,5.3,2.3L93,46.4z M90.3,59.3v-4H76.7v-2.9h16.9v6.9H90.3z"/>
		<path class="st1" d="M106.1,57.2v-2.9h9.3v-4.3h3.5v4.3h9.3v2.9H106.1z M124.8,50.5c-1.2-0.3-2.5-1-4.1-2s-2.8-2.2-3.6-3.4
			c-0.8,1.2-1.9,2.4-3.4,3.4c-1.5,1-2.9,1.7-4.3,2.1l-2.2-2.2c2.1-0.7,4-1.8,5.6-3.2s2.4-3.2,2.4-5.1v-2h3.7v2c0,2,0.8,3.7,2.4,5
			c1.6,1.4,3.5,2.5,5.7,3.3L124.8,50.5z"/>
		<path class="st1" d="M130.7,54.9V39.1h3.3V44h4.8v-4.9h3.3v15.8H130.7z M138.8,46.9H134V52h4.8V46.9z M145.7,59.3v-22h3.3v22
			H145.7z"/>
		<path class="st1" d="M164.9,55.3c-0.9-0.5-1.9-1.2-3-2.2s-1.8-2-2.3-3c-0.5,1.3-1.3,2.4-2.4,3.4c-1.1,1-2.1,1.8-3,2.3l-2.4-2.3
			c1.3-0.6,2.7-1.7,4-3.3c1.3-1.6,2-3.8,2-6.7v-1.2h-4.7v-2.9h12.9v2.9h-4.7v1.2c0,2.9,0.7,5,2,6.4s2.5,2.4,3.7,2.9L164.9,55.3z
			 M171.8,49v10.3h-3.4v-22h3.4v8.5h3V49H171.8z"/>
		<path class="st1" d="M176.1,49.5V38.4h11.4v11.1H176.1z M178.6,58.8v-7.3h3.4v4.5h13v2.9H178.6z M184.2,41.2h-4.8v5.4h4.8V41.2z
			 M194.4,46.1V53H191V37.3h3.3v5.8h2.9v3H194.4z"/>
		<path class="st1" d="M198.1,51.2v-2.9h9.3v-2.5h3.5v2.5h9.3v2.9H198.1z M216.8,46.8c-1.3-0.1-2.6-0.4-4.1-1
			c-1.5-0.6-2.7-1.4-3.7-2.5c-0.7,1-1.8,1.8-3.3,2.4c-1.5,0.6-2.9,1-4.3,1.1l-1.9-2.4c1.6-0.2,3.1-0.7,4.7-1.3
			c1.6-0.7,2.5-1.4,2.8-2.3h-6.5v-2.8h17.1v2.8h-6.5c0.5,1,1.5,1.8,3.1,2.4c1.5,0.7,3,1.1,4.4,1.2L216.8,46.8z M214.1,59.3v-3.9
			h-13.8v-2.9h17.1v6.8H214.1z"/>
		<path class="st1" d="M238.8,54.5c-1,0.1-2.3,0.2-4,0.2h-3.3V39.8h8v2.9h-4.7v9.1h1.5c0.8,0,1.7-0.1,2.6-0.2
			c0.9-0.1,1.5-0.2,1.8-0.3v2.8C240.4,54.2,239.8,54.3,238.8,54.5z M247.2,59.3V48.8h-2v9.5h-3.2V37.8h3.2v7.6h2v-8.1h3.2v22H247.2z
			"/>
		<path class="st1" d="M265.6,49.3c-0.9-0.4-1.9-1-2.9-1.7c-1-0.7-1.8-1.5-2.5-2.5c-0.5,1-1.3,1.8-2.2,2.6c-0.9,0.8-1.9,1.5-2.9,2
			l-2.4-2.3c1.5-0.6,2.8-1.6,4-2.9s1.8-2.7,1.8-4v-2.6h3.6v2.6c0,1.4,0.6,2.7,1.8,3.9c1.2,1.2,2.5,2,3.8,2.4L265.6,49.3z
			 M271.4,51.6c1.5,0.9,2.2,2,2.2,3.4c0,1.3-0.7,2.5-2.2,3.3c-1.5,0.9-3.6,1.3-6.5,1.3c-2.8,0-5-0.4-6.4-1.3c-1.5-0.9-2.2-2-2.2-3.3
			c0-1.3,0.7-2.5,2.2-3.3c1.5-0.9,3.6-1.3,6.4-1.3C267.8,50.3,269.9,50.7,271.4,51.6z M268.6,53.5c-0.9-0.3-2.1-0.5-3.6-0.5
			c-1.5,0-2.7,0.2-3.7,0.5c-0.9,0.3-1.4,0.8-1.4,1.4c0,0.6,0.5,1,1.4,1.4c0.9,0.3,2.1,0.5,3.7,0.5c1.5,0,2.7-0.2,3.6-0.5
			c0.9-0.3,1.3-0.8,1.3-1.4C269.9,54.4,269.5,53.9,268.6,53.5z M272.7,45.1v5h-3.3V37.3h3.3v4.9h2.9v2.9H272.7z"/>
	</g>
</g>
<g>
</g>
<g>
</g>
<g>
</g>
<g>
</g>
<g>
</g>
<g>
</g>
<g>
</g>
<g>
</g>
<g>
</g>
<g>
</g>
<g>
</g>
<g>
</g>
<g>
</g>
<g>
</g>
<g>
</g>
</svg>
