<?xml version="1.0" encoding="utf-8"?>
<!-- Generator: Adobe Illustrator 24.0.1, SVG Export Plug-In . SVG Version: 6.00 Build 0)  -->
<svg version="1.1" id="레이어_1" xmlns="http://www.w3.org/2000/svg" xmlns:xlink="http://www.w3.org/1999/xlink" x="0px"
	 y="0px" viewBox="0 0 60 34.8" style="enable-background:new 0 0 60 34.8;" xml:space="preserve">
<style type="text/css">
	.st0{fill:#808080;}
	.st1{fill:#FFFFFF;}
	.st2{fill:#ABD8F1;}
	.st3{fill:none;stroke:#FFFFFF;stroke-width:0.25;stroke-miterlimit:10;}
	.st4{fill:#808080;stroke:#FFFFFF;stroke-width:2;stroke-linecap:round;stroke-linejoin:round;stroke-miterlimit:10;}
</style>
<g>
	<path class="st0" d="M51.3,2.8c-0.3-0.7-0.8-1.4-1.9-1.4H33.6c-0.8,0-1.3,0.7-1.7,1.4l-1,2.1h21L51.3,2.8z"/>
	<g>
		<g>
			<g>
				<path class="st0" d="M6.4,29.1c-1.5,0-2.7-1.2-2.7-2.7v-11c0,0,0,0,0,0l0.9-9.3c0-1.5,1.2-2.7,2.7-2.7h46.8
					c1.5,0,2.7,1.2,2.7,2.7L58,17.6l0,8.8c0,1.5-1.2,2.7-2.7,2.7H6.4z"/>
				<path class="st1" d="M54.2,3.9c1.2,0,2.2,1,2.2,2.2l1.1,11.6v8.8c0,1.2-1,2.2-2.2,2.2H6.4c-1.2,0-2.2-1-2.2-2.2v-11l1-9.3
					c0-1.2,1-2.2,2.2-2.2H54.2 M54.2,3H7.4C5.7,3,4.3,4.3,4.3,6l-0.9,9.3c0,0,0,0.1,0,0.1v11c0,1.7,1.4,3.1,3.1,3.1h48.8
					c1.7,0,3.1-1.4,3.1-3.1v-8.8c0,0,0-0.1,0-0.1L57.3,6.1C57.3,4.3,55.9,3,54.2,3L54.2,3z"/>
			</g>
			<path class="st2" d="M30,6.7c-0.6,0-1.1,0.5-1.1,1.1v5.1c0,0.6,0.5,1.1,1.1,1.1h5.9c0.6,0,1.1-0.5,1.1-1.1V7.8
				c0-0.6-0.5-1.1-1.1-1.1H30z"/>
			<path class="st3" d="M30,13.4c-0.3,0-0.5-0.2-0.5-0.5V7.8c0-0.3,0.2-0.5,0.5-0.5h5.9c0.3,0,0.5,0.2,0.5,0.5v5.1
				c0,0.3-0.2,0.5-0.5,0.5H30z"/>
			<path class="st2" d="M20.6,6.7c-0.6,0-1.1,0.5-1.1,1.1v5.1c0,0.6,0.5,1.1,1.1,1.1h5.9c0.6,0,1.1-0.5,1.1-1.1V7.8
				c0-0.6-0.5-1.1-1.1-1.1H20.6z"/>
			<path class="st3" d="M20.6,13.4c-0.3,0-0.5-0.2-0.5-0.5V7.8c0-0.3,0.2-0.5,0.5-0.5h5.9c0.3,0,0.5,0.2,0.5,0.5v5.1
				c0,0.3-0.2,0.5-0.5,0.5H20.6z"/>
			<path class="st2" d="M39.4,6.7c-0.6,0-1.1,0.5-1.1,1.1v5.1c0,0.6,0.5,1.1,1.1,1.1h6c0.6,0,1.1-0.5,1.1-1.1V7.8
				c0-0.6-0.5-1.1-1.1-1.1H39.4z"/>
			<path class="st3" d="M39.4,13.4c-0.3,0-0.5-0.2-0.5-0.5V7.8c0-0.3,0.2-0.5,0.5-0.5h6c0.3,0,0.5,0.2,0.5,0.5v5.1
				c0,0.3-0.2,0.5-0.5,0.5H39.4z"/>
			<path class="st2" d="M11.2,6.7c-0.6,0-1.1,0.5-1.1,1.1v5.1c0,0.6,0.5,1.1,1.1,1.1h5.9c0.6,0,1.1-0.5,1.1-1.1V7.8
				c0-0.6-0.5-1.1-1.1-1.1H11.2z"/>
			<path class="st3" d="M11.2,13.4c-0.3,0-0.5-0.2-0.5-0.5V7.8c0-0.3,0.2-0.5,0.5-0.5h5.9c0.3,0,0.5,0.2,0.5,0.5v5.1
				c0,0.3-0.2,0.5-0.5,0.5H11.2z"/>
			<g>
				<path class="st2" d="M56.4,6.7h-4.1c-0.6,0-1.1,0.5-1.1,1.1l0.2,8.5c0,0.6,0.5,1.1,1.1,1.1h5c0,0,0,0,0.1,0L56.4,6.7
					C56.4,6.7,56.4,6.7,56.4,6.7z"/>
				<path class="st3" d="M57.4,16.8h-5c-0.3,0-0.5-0.2-0.5-0.5l-0.2-8.5c0-0.3,0.2-0.5,0.5-0.5h4.3"/>
			</g>
			<path class="st2" d="M7.7,14c0.6,0,1.1-0.5,1.1-1.1V7.8c0-0.6-0.5-1.1-1.1-1.1H5.1L4.3,14c0,0,0,0,0,0H7.7z"/>
			<path class="st3" d="M5.1,7.3h2.6c0.3,0,0.5,0.2,0.5,0.5v5.1c0,0.3-0.2,0.5-0.5,0.5H4.4"/>
		</g>
		<g>
			<g>
				<path class="st4" d="M21.5,28.6c0,2.9-2.3,5.2-5.2,5.2c-2.9,0-5.2-2.3-5.2-5.2c0-2.9,2.3-5.2,5.2-5.2
					C19.2,23.4,21.5,25.7,21.5,28.6z"/>
				<path class="st1" d="M18.4,28.6c0,1.2-0.9,2.1-2.1,2.1c-1.2,0-2.1-0.9-2.1-2.1c0-1.2,0.9-2.1,2.1-2.1
					C17.5,26.5,18.4,27.5,18.4,28.6z"/>
			</g>
			<g>
				<path class="st4" d="M51.1,28.6c0,2.9-2.3,5.2-5.2,5.2c-2.9,0-5.2-2.3-5.2-5.2c0-2.9,2.3-5.2,5.2-5.2
					C48.8,23.4,51.1,25.7,51.1,28.6z"/>
				<path class="st1" d="M48,28.6c0,1.2-0.9,2.1-2.1,2.1c-1.2,0-2.1-0.9-2.1-2.1c0-1.2,0.9-2.1,2.1-2.1C47.1,26.5,48,27.5,48,28.6z"
					/>
			</g>
		</g>
		<rect x="2.2" y="26.6" class="st0" width="4.1" height="1.3"/>
	</g>
	<path class="st1" d="M55.3,26.4c0,0.3-0.2,0.5-0.5,0.5h-1.5c-0.3,0-0.5-0.2-0.5-0.5v-1c0-0.3,0.2-0.5,0.5-0.5h1.5
		c0.3,0,0.5,0.2,0.5,0.5V26.4z"/>
</g>
</svg>
