<?xml version="1.0" encoding="utf-8"?>
<!-- Generator: Adobe Illustrator 24.0.1, SVG Export Plug-In . SVG Version: 6.00 Build 0)  -->
<svg version="1.1" id="레이어_1" xmlns="http://www.w3.org/2000/svg" xmlns:xlink="http://www.w3.org/1999/xlink" x="0px"
	 y="0px" viewBox="0 0 60 46.1" style="enable-background:new 0 0 60 46.1;" xml:space="preserve">
<style type="text/css">
	.st0{fill:#808080;}
	.st1{fill:#808080;stroke:#FFFFFF;stroke-width:2;stroke-miterlimit:10;}
	.st2{fill:#FFFFFF;}
	.st3{fill:#808080;stroke:#FFFFFF;stroke-width:0.75;stroke-linecap:round;stroke-linejoin:round;stroke-miterlimit:10;}
	.st4{fill:none;stroke:#808080;stroke-width:0.5;stroke-miterlimit:10;}
	.st5{fill:#ABD8F1;}
	.st6{fill:none;stroke:#FFFFFF;stroke-width:0.25;stroke-miterlimit:10;}
</style>
<g>
	<g>
		<path class="st0" d="M14.1,42.1c0,1.9-1.6,3.5-3.5,3.5l0,0c-1.9,0-3.5-1.6-3.5-3.5v-3.8c0-1.9,1.6-3.5,3.5-3.5l0,0
			c1.9,0,3.5,1.6,3.5,3.5V42.1z"/>
		<path class="st0" d="M52.9,42.1c0,1.9-1.6,3.5-3.5,3.5l0,0c-1.9,0-3.5-1.6-3.5-3.5v-3.8c0-1.9,1.6-3.5,3.5-3.5l0,0
			c1.9,0,3.5,1.6,3.5,3.5V42.1z"/>
	</g>
	<g>
		<g>
			<path class="st1" d="M56.8,23.9c0-2.3-1.8-4.1-4.2-4.4L50.9,7.1c-0.1-3.1-2.8-5.5-6.1-5.5H15.3c-3.3,0-6.1,2.5-6.1,5.5L7.4,19.4
				l0,0c-2.4,0.3-4.2,2.1-4.2,4.4L1.4,35.4c0,2.4,2.1,4.4,4.8,4.4h47.7c2.6,0,4.8-2,4.8-4.4L56.8,23.9z"/>
		</g>
		<g>
			<ellipse class="st2" cx="10.5" cy="31.8" rx="3.4" ry="3.2"/>
			<path class="st3" d="M10.5,34.1c-1.4,0-2.5-1-2.5-2.3s1.1-2.3,2.5-2.3c1.4,0,2.5,1,2.5,2.3S11.9,34.1,10.5,34.1z"/>
			<ellipse class="st2" cx="49.5" cy="31.8" rx="3.4" ry="3.2"/>
			<path class="st3" d="M49.5,34.1c-1.4,0-2.5-1-2.5-2.3s1.1-2.3,2.5-2.3c1.4,0,2.5,1,2.5,2.3S50.9,34.1,49.5,34.1z"/>
		</g>
		<path class="st2" d="M43.9,31.8c0,1.6-1.4,2.9-3.2,2.9H19.3c-1.7,0-3.2-1.3-3.2-2.9l0,0c0-1.6,1.4-2.9,3.2-2.9h21.5
			C42.5,28.9,43.9,30.2,43.9,31.8L43.9,31.8z"/>
		<path class="st4" d="M19.3,33.9C18,33.9,17,33,17,31.8c0-1.2,1-2.1,2.3-2.1h21.5c1.3,0,2.3,0.9,2.3,2.1c0,1.2-1,2.1-2.3,2.1H19.3z
			"/>
	</g>
	<path class="st5" d="M14.2,7.2c0-0.5,0.5-1,1.1-1h29.5c0.6,0,1.1,0.4,1.1,1l1.8,12.2H12.4l1.8-12L14.2,7.2z"/>
	<path class="st0" d="M32.7,19.4c0-2.6,2.3-4.7,5.1-4.7c2.8,0,5.1,2.1,5.1,4.7c0,0,0,0,0,0.1h2.5c0,0,0,0,0-0.1
		c0-3.9-3.4-7.1-7.7-7.1s-7.7,3.2-7.7,7.1c0,0,0,0,0,0.1L32.7,19.4C32.7,19.4,32.7,19.4,32.7,19.4z"/>
	<path class="st6" d="M13.4,18.6l1.7-11.1l0-0.2c0-0.1,0.1-0.2,0.2-0.2h29.5c0.1,0,0.2,0.1,0.2,0.1l0,0.1l1.7,11.3H13.4z"/>
</g>
</svg>
