<?xml version="1.0" encoding="utf-8"?>
<!-- Generator: Adobe Illustrator 23.1.0, SVG Export Plug-In . SVG Version: 6.00 Build 0)  -->
<svg version="1.1" id="레이어_1" xmlns="http://www.w3.org/2000/svg" xmlns:xlink="http://www.w3.org/1999/xlink" x="0px"
	 y="0px" viewBox="0 0 320 59" style="enable-background:new 0 0 320 59;" xml:space="preserve">
<style type="text/css">
	.st0{fill:#FFFFFF;stroke:#FFFFFF;stroke-width:0.5;stroke-miterlimit:10;}
</style>
<g>
	<path class="st0" d="M25.1,27.4c-5,0.4-9.2,0.6-12.8,0.6H3.8V8.1h23.9v2.2H6.5v15.5h5.9c4,0,8.3-0.2,13-0.5c4.7-0.4,7.9-0.7,9.5-1
		v2.2C33.4,26.7,30.1,27,25.1,27.4z M37.5,37.3c3,1.8,4.5,4,4.5,6.7c0,2.7-1.5,4.9-4.5,6.6c-3,1.7-7.3,2.6-12.9,2.6
		c-5.6,0-9.9-0.9-12.9-2.6s-4.5-4-4.5-6.6c0-2.7,1.5-4.9,4.5-6.7c3-1.8,7.3-2.6,12.9-2.6C30.2,34.7,34.5,35.6,37.5,37.3z M14.2,38.8
		c-2.7,1.2-4.1,2.9-4.1,5.2c0,2.2,1.4,3.9,4.1,5.1c2.7,1.2,6.2,1.9,10.4,1.9c4.1,0,7.6-0.6,10.3-1.9c2.8-1.2,4.1-2.9,4.1-5.1
		c0-2.2-1.4-4-4.1-5.2c-2.8-1.2-6.2-1.8-10.3-1.8C20.4,37,16.9,37.6,14.2,38.8z M40.9,4v12.1h7.6v2.2h-7.6v15h-2.7V4H40.9z"/>
	<path class="st0" d="M74.8,24.1c3.9,3.3,6.8,5.5,8.7,6.4l-1.7,2c-0.8-0.3-3-1.9-6.5-4.8c-3.5-2.9-6.1-6.3-7.8-10.3
		c-1.7,4.9-4.2,8.7-7.6,11.3c-3.4,2.6-5.6,4.2-6.4,4.6l-2.1-1.7c2.1-0.8,5.1-3,9-6.8c3.9-3.8,5.8-8.2,5.8-13.4V5.8h2.7v5.5
		C68.9,16.5,70.9,20.7,74.8,24.1z M64.8,36.3v12.5h30.5V51H62.1V36.3H64.8z M94.2,4.2V39h-2.7V4.2H94.2z"/>
	<path class="st0" d="M130.9,40.5c-4.1,0.3-7.5,0.5-10.3,0.5c-3.3,0.1-6.7,0.1-10.1,0.1s-6,0-7.6,0V39c1.3,0,3.8,0,7.7,0
		c3.8,0,7.2,0,10-0.1c2.9-0.1,6.3-0.2,10.3-0.5c4-0.3,6.9-0.6,8.8-0.9v2.2C137.9,40,135,40.3,130.9,40.5z M128.8,10.9
		c2.4,2.3,3.7,5,3.7,8.2c0,3.2-1.2,5.9-3.7,8.2c-2.4,2.3-5.6,3.4-9.4,3.4c-3.8,0-7-1.1-9.4-3.4c-2.4-2.3-3.7-5-3.7-8.2
		c0-3.2,1.2-5.9,3.7-8.2c2.4-2.3,5.6-3.4,9.4-3.4C123.2,7.5,126.3,8.7,128.8,10.9z M111.7,12.6c-1.8,1.8-2.6,4-2.6,6.5
		c0,2.5,0.9,4.7,2.6,6.5c1.8,1.8,4.3,2.7,7.6,2.7c3.3,0,5.8-0.9,7.6-2.7c1.8-1.8,2.6-4,2.6-6.5c0-2.5-0.9-4.7-2.6-6.5
		c-1.8-1.8-4.3-2.7-7.6-2.7C116,9.9,113.5,10.8,111.7,12.6z M144.3,4.2v47.9h-2.7V4.2H144.3z"/>
	<path class="st0" d="M217.2,28.7v2.2h-47.9v-2.2h22.6v-7.6h-15.8V6.4h34.3v2.2h-31.6v10.4h32.1v2.2h-16.3v7.6H217.2z M206.5,37.8
		c3.1,1.7,4.6,3.8,4.6,6.4s-1.5,4.7-4.6,6.4c-3.1,1.7-7.5,2.6-13.3,2.6c-5.8,0-10.2-0.9-13.3-2.6c-3.1-1.7-4.7-3.8-4.7-6.4
		s1.6-4.7,4.7-6.4c3.1-1.7,7.5-2.6,13.3-2.6C199,35.2,203.5,36.1,206.5,37.8z M182.3,39.3c-2.8,1.2-4.2,2.8-4.2,4.9
		c0,2,1.4,3.6,4.2,4.8c2.8,1.2,6.4,1.8,10.9,1.8c4.4,0,8.1-0.6,10.9-1.8c2.8-1.2,4.2-2.8,4.2-4.8c0-2.1-1.4-3.7-4.2-4.9
		c-2.8-1.2-6.5-1.7-10.9-1.7C188.8,37.6,185.1,38.1,182.3,39.3z"/>
	<path class="st0" d="M225.3,6.7V16h17.4V6.7h2.7v24.5h-22.9V6.7H225.3z M225.3,29h17.4V18.2h-17.4V29z M231,36.5v12.4h30.6V51
		h-33.4V36.5H231z M259.9,39.2h-2.7v-35h2.7v14.3h7.6v2.2h-7.6V39.2z"/>
	<path class="st0" d="M272.4,12.1V9.9H300v2.2h-12.6v5.3c0,7.1,1.9,12.5,5.8,16.2c3.8,3.7,6.4,5.8,7.6,6.4l-1.7,2.2
		c-0.8-0.5-2.9-2.2-6.3-5.3c-3.4-3.1-5.6-7.1-6.7-12.2c-0.9,5-3.2,9.2-6.9,12.6c-3.6,3.4-6.1,5.5-7.3,6.2l-2.1-1.8
		c2.8-1.3,6-4.1,9.5-8.5c3.6-4.3,5.3-9.6,5.3-15.8v-5.3H272.4z M310.6,52.1h-2.7V4.2h2.7v20.1h8.3v2.2h-8.3V52.1z"/>
</g>
<g>
</g>
<g>
</g>
<g>
</g>
<g>
</g>
<g>
</g>
<g>
</g>
<g>
</g>
<g>
</g>
<g>
</g>
<g>
</g>
<g>
</g>
<g>
</g>
<g>
</g>
<g>
</g>
<g>
</g>
</svg>
