<?xml version="1.0" encoding="utf-8"?>
<!-- Generator: Adobe Illustrator 23.1.0, SVG Export Plug-In . SVG Version: 6.00 Build 0)  -->
<svg version="1.1" id="레이어_1" xmlns="http://www.w3.org/2000/svg" xmlns:xlink="http://www.w3.org/1999/xlink" x="0px"
	 y="0px" viewBox="0 0 147 39" style="enable-background:new 0 0 147 39;" xml:space="preserve">
<style type="text/css">
	.st0{fill:#FFFFFF;stroke:#FFFFFF;stroke-width:0.5;stroke-miterlimit:10;}
</style>
<g>
	<path class="st0" d="M3,20.8v-3h31.7v3H3z M14.2,13.2c-2.3,1.4-4.7,2.3-7.1,2.6l-2.2-2.5c5-1.1,8.3-2.5,9.8-4.5
		c1.5-1.9,2.3-3.4,2.3-4.5V3.1h3.8v1.2c0,1.1,0.8,2.6,2.5,4.6s4.8,3.5,9.6,4.3l-2.2,2.5c-2.2-0.3-4.5-1.1-6.9-2.4
		c-2.4-1.4-4-2.9-4.9-4.7C18.1,10.3,16.5,11.8,14.2,13.2z M28.2,33.7c-2.2,1.2-5.4,1.8-9.4,1.8c-4,0-7.2-0.6-9.4-1.8
		c-2.2-1.2-3.3-2.7-3.3-4.5c0-1.8,1.1-3.4,3.3-4.6c2.2-1.2,5.3-1.8,9.4-1.8c4.1,0,7.2,0.6,9.4,1.8c2.2,1.2,3.3,2.7,3.3,4.6
		C31.6,31,30.5,32.5,28.2,33.7z M12.7,26.6c-1.5,0.6-2.3,1.5-2.3,2.6c0,1,0.8,1.9,2.3,2.6c1.5,0.7,3.6,1,6.2,1c2.5,0,4.6-0.3,6.1-1
		c1.5-0.7,2.3-1.5,2.3-2.5c0-1.1-0.8-1.9-2.3-2.6c-1.5-0.6-3.6-1-6.1-1C16.3,25.7,14.2,26,12.7,26.6z"/>
	<path class="st0" d="M39.7,31v-3h14v-6.8h3.5V28h14.1v3H39.7z M51,18.5c-2.4,1.9-4.7,3.1-7.1,3.8l-2.5-2.6
		c5.4-1.8,8.8-4.1,10.2-6.7c1.4-2.6,2.1-4.7,2.1-6.2V4.3h3.8v2.5c0,1.5,0.7,3.6,2.2,6.2c1.5,2.7,4.8,4.9,10,6.7l-2.5,2.6
		c-2.4-0.7-4.8-2-7.1-4c-2.3-2-3.8-3.8-4.6-5.6C54.9,14.7,53.3,16.6,51,18.5z"/>
	<path class="st0" d="M95.2,28.8c-1.4-0.6-2.9-1.9-4.7-3.8s-3-3.8-3.8-5.7c-0.5,1.8-1.7,3.7-3.5,5.7c-1.8,2.1-3.5,3.5-5,4.4
		l-2.9-2.3c3.3-1.8,5.7-4.2,7.2-7.1c1.5-2.9,2.2-6.2,2.2-10.1V5h3.8v5c0,3.9,0.8,7.2,2.3,9.7c1.5,2.5,3.8,4.7,6.8,6.5L95.2,28.8z
		 M104,3.3V16h4.8v3.2H104v15.8h-3.6V3.3H104z"/>
	<path class="st0" d="M126.4,28c-1.5,0.1-3.1,0.2-4.9,0.3l-6.3,0V15.8h8.1v-6h-8.1v-3h11.7v12.1h-8.1v6.4l3.9,0
		c1.2,0,2.5-0.1,3.9-0.2c1.4-0.1,2.4-0.2,3.2-0.3v2.9C129,27.8,127.9,27.9,126.4,28z M132.2,33.5V22h-3.8v-3.2h3.8v-4.6h-3.8v-3.2
		h3.8V4h3.5v29.5H132.2z M138.9,34.9V3.3h3.5v31.7H138.9z"/>
</g>
<g>
</g>
<g>
</g>
<g>
</g>
<g>
</g>
<g>
</g>
<g>
</g>
<g>
</g>
<g>
</g>
<g>
</g>
<g>
</g>
<g>
</g>
<g>
</g>
<g>
</g>
<g>
</g>
<g>
</g>
</svg>
