<?xml version="1.0" encoding="utf-8"?>
<!-- Generator: Adobe Illustrator 23.1.0, SVG Export Plug-In . SVG Version: 6.00 Build 0)  -->
<svg version="1.1" id="레이어_1" xmlns="http://www.w3.org/2000/svg" xmlns:xlink="http://www.w3.org/1999/xlink" x="0px"
	 y="0px" viewBox="0 0 300 53" style="enable-background:new 0 0 300 53;" xml:space="preserve">
<style type="text/css">
	.st0{fill:#FFFFFF;}
</style>
<g>
	<path class="st0" d="M96.8,11.1c-1.1,0.1-2.3,0.2-3.6,0.2c-1.1,0-2.3,0.1-3.7,0.1s-2.1,0-2.2,0V3.2h9.7v1.4H89v5.5l4.7,0
		c1,0,2.1-0.1,3.2-0.2c1.1-0.1,2-0.2,2.7-0.4v1.3C98.8,10.9,97.9,11,96.8,11.1z M101.1,20.4c-1.2,0.7-3,1.1-5.3,1.1
		c-2.3,0-4.1-0.4-5.3-1.1s-1.8-1.7-1.8-2.8c0-1.1,0.6-2.1,1.8-2.8c1.2-0.7,3-1.1,5.3-1.1c2.3,0,4.1,0.4,5.3,1.1
		c1.2,0.7,1.8,1.7,1.8,2.8C102.9,18.8,102.3,19.7,101.1,20.4z M99.6,15.8c-1-0.4-2.3-0.7-3.9-0.7c-1.6,0-2.9,0.2-3.9,0.7
		c-1,0.4-1.5,1.1-1.5,1.9c0,0.8,0.5,1.4,1.5,1.8c1,0.5,2.3,0.7,3.9,0.7c1.6,0,2.9-0.2,3.9-0.7c1-0.5,1.5-1.1,1.5-1.8
		C101.2,16.8,100.6,16.2,99.6,15.8z M102.5,6.3h2.9v1.4h-2.9v5.6h-1.6V1.8h1.6V6.3z"/>
	<path class="st0" d="M118.3,13.1c-0.3-0.2-0.8-0.5-1.6-1c-0.7-0.5-1.4-1.1-1.9-1.6c-0.5-0.5-0.9-1-1.2-1.5c-0.3-0.5-0.6-1-0.7-1.4
		c-0.1,0.5-0.4,1-0.7,1.5s-0.7,1.1-1.2,1.6c-0.6,0.6-1.2,1.2-1.8,1.7c-0.7,0.5-1.2,0.8-1.7,1.1l-1.2-1.1c0.6-0.3,1.3-0.7,2-1.2
		s1.4-1.2,2-1.9c0.6-0.7,1-1.5,1.3-2.4c0.3-0.9,0.5-1.8,0.5-2.7V2.4h1.7v1.8c0,0.9,0.2,1.8,0.5,2.7s0.8,1.6,1.3,2.2
		c0.6,0.6,1.3,1.2,2,1.8c0.8,0.6,1.4,0.9,1.9,1.1L118.3,13.1z M110.6,20.7v-6h1.6v4.6h12.2v1.3H110.6z M122.3,15.8v-14h1.6v14H122.3
		z"/>
	<path class="st0" d="M138.3,16.8c-1.7,0.1-3.3,0.1-4.6,0.2l-6.3,0v-1.4l6.4,0c1.4,0,2.9-0.1,4.5-0.2c1.6-0.1,2.8-0.2,3.6-0.3v1.4
		C141.2,16.6,140,16.7,138.3,16.8z M137.8,11.1c-1,0.9-2.3,1.4-3.9,1.4s-2.9-0.5-3.9-1.4c-1-0.9-1.5-2.1-1.5-3.3
		c0-1.3,0.5-2.4,1.5-3.3c1-0.9,2.3-1.4,3.9-1.4s2.9,0.5,3.9,1.4c1,0.9,1.5,2,1.5,3.3C139.3,9.1,138.8,10.2,137.8,11.1z M136.7,5.4
		c-0.6-0.7-1.5-1-2.7-1s-2.1,0.3-2.7,1s-1,1.4-1,2.4c0,0.9,0.3,1.7,1,2.4s1.5,1,2.7,1s2.1-0.3,2.7-1s0.9-1.4,0.9-2.4
		C137.6,6.9,137.3,6.1,136.7,5.4z M142.7,21.1V1.8h1.6v19.4H142.7z"/>
	<path class="st0" d="M165.3,16.3c-1.2,0.1-2.4,0.2-3.7,0.2c-1.2,0-2.4,0.1-3.5,0.1s-1.8,0-1.8,0V4.1h9.5v1.4h-7.8v9.7l4.2,0
		c1,0,2.1-0.1,3.2-0.2s2-0.2,2.4-0.3V16C167.3,16,166.4,16.1,165.3,16.3z M170,21.1V10.6h-5.7V9.2h5.7V1.8h1.7v19.4H170z"/>
	<path class="st0" d="M185.1,16c-1.2,0.2-2.4,0.3-3.6,0.3l-5.3,0.1V3.6h1.6V15l3.7,0c1,0,2.2-0.1,3.4-0.3c1.3-0.2,2.3-0.3,3-0.5v1.4
		C187.3,15.7,186.4,15.8,185.1,16z M191.1,10.8v10.4h-1.7V1.8h1.7v7.6h3.1v1.4H191.1z"/>
	<path class="st0" d="M194.8,13.3V12h19.4v1.4H194.8z M209.8,8.7c-1.3,0.8-3.1,1.1-5.4,1.1c-2.2,0-4-0.4-5.3-1.1
		c-1.3-0.8-1.9-1.7-1.9-2.9c0-1.1,0.6-2.1,1.9-2.9c1.3-0.8,3.1-1.2,5.3-1.2c2.3,0,4.1,0.4,5.4,1.2c1.3,0.8,1.9,1.8,1.9,3
		C211.7,7,211.1,8,209.8,8.7z M197.5,20.7v-5.6h1.7v4.2h13.1v1.4H197.5z M208.4,3.8c-1-0.5-2.4-0.8-4-0.8c-1.6,0-2.9,0.3-3.9,0.8
		c-1.1,0.6-1.6,1.2-1.6,2.1c0,0.8,0.5,1.5,1.6,2c1.1,0.5,2.4,0.7,3.9,0.7c1.6,0,2.9-0.2,3.9-0.7c1.1-0.5,1.6-1.1,1.6-2
		S209.5,4.3,208.4,3.8z"/>
	<path class="st0" d="M0.7,47v-1.4h13.6c0.2-0.9,0.4-2.5,0.8-5c0.4-2.4,0.6-4.4,0.6-5.8H3v-1.4h14.5c0,1-0.1,2-0.2,2.9
		c-0.1,1-0.2,2-0.4,3.2c-0.2,1.2-0.3,2.4-0.5,3.6c-0.2,1.2-0.3,2-0.4,2.5h4.2V47H0.7z"/>
	<path class="st0" d="M31.6,39.1c-1.2,0.2-2.5,0.2-3.8,0.3c-1.1,0-2.3,0.1-3.5,0.1c-1.2,0-1.8,0-1.9,0v-7.9H24v6.5l3.8-0.1
		c1.2,0,2.4-0.1,3.7-0.3c1.2-0.1,2.2-0.3,2.9-0.4v1.3C33.8,38.8,32.9,39,31.6,39.1z M24.4,49.9v-4.8h11.4v-2.2H24.4v-1.3h13.1v4.7
		H26.1v2.3h11.8v1.3H24.4z M37.5,36.2v4.5h-1.6v-9.9h1.6v4.1h2.9v1.4H37.5z"/>
	<path class="st0" d="M41.2,40.6v-1.3h19.4v1.3H41.2z M56.3,36.6c-1.3,0.7-3.1,1-5.4,1c-2.3,0-4.2-0.3-5.4-1
		c-1.3-0.7-1.9-1.5-1.9-2.5s0.6-1.8,1.9-2.5c1.3-0.7,3.1-1,5.4-1c2.4,0,4.2,0.3,5.4,1c1.3,0.7,1.9,1.5,1.9,2.4
		C58.2,35.1,57.6,35.9,56.3,36.6z M43.9,49.9v-4.5h12.3v-1.8H43.9v-1.3H58v4.4H45.6v1.9h12.8v1.3H43.9z M54.9,32.5
		c-1-0.4-2.4-0.6-4-0.6c-1.7,0-3,0.2-4,0.6c-1,0.4-1.5,0.9-1.5,1.6c0,0.6,0.5,1.2,1.5,1.6c1,0.4,2.4,0.6,4,0.6c1.6,0,3-0.2,4-0.6
		c1-0.4,1.5-1,1.5-1.6C56.4,33.5,55.9,32.9,54.9,32.5z"/>
	<path class="st0" d="M81.1,42.8C79.6,43,78.3,43,77.2,43v6.6h-1.6v-6.6H70v-1.4l7.3,0c1.1,0,2.5-0.1,4-0.2c1.6-0.1,2.6-0.2,3.2-0.3
		v1.3C83.7,42.6,82.6,42.7,81.1,42.8z M80.3,38.3c-0.9,0.8-2.2,1.3-3.7,1.3s-2.8-0.4-3.7-1.3s-1.4-1.8-1.4-2.9
		c0-1.1,0.5-2.1,1.4-2.9s2.2-1.3,3.7-1.3s2.8,0.4,3.7,1.3s1.4,1.8,1.4,2.9C81.8,36.5,81.3,37.5,80.3,38.3z M74,33.5
		c-0.6,0.6-0.9,1.2-0.9,1.9s0.3,1.3,0.9,1.9c0.6,0.6,1.5,0.9,2.6,0.9c1.2,0,2-0.3,2.6-0.9c0.6-0.6,0.9-1.2,0.9-1.9s-0.3-1.4-0.9-1.9
		c-0.6-0.6-1.5-0.9-2.6-0.9C75.5,32.6,74.6,32.9,74,33.5z M85.3,50.1V30.8h1.6v19.4H85.3z"/>
	<path class="st0" d="M89.9,37.1v-1.4h10v1.4H89.9z M98,45.7c-0.8,0.8-1.9,1.1-3.1,1.1c-1.2,0-2.3-0.4-3.1-1.1
		c-0.9-0.8-1.3-1.7-1.3-3c0-1.2,0.4-2.2,1.3-2.9c0.9-0.8,1.9-1.1,3.1-1.1c1.3,0,2.3,0.4,3.1,1.1c0.8,0.8,1.2,1.7,1.2,2.9
		C99.3,44,98.9,45,98,45.7z M96.9,40.8c-0.5-0.5-1.2-0.8-2-0.8c-0.8,0-1.5,0.3-2,0.8c-0.5,0.5-0.8,1.2-0.8,2s0.3,1.5,0.8,2
		c0.5,0.5,1.2,0.7,2,0.7c0.8,0,1.5-0.3,2-0.7c0.5-0.5,0.7-1.2,0.7-2S97.4,41.3,96.9,40.8z M92.2,33.8v-1.4h5.3v1.4H92.2z
		 M105.8,50.1v-9.7h-2.8v8.8h-1.6v-18h1.6v7.7h2.8v-8.2h1.6v19.4H105.8z"/>
	<path class="st0" d="M117.3,47v-1.4h13.6c0.2-0.9,0.4-2.5,0.8-5c0.4-2.4,0.6-4.4,0.6-5.8h-12.7v-1.4h14.5c0,1-0.1,2-0.2,2.9
		c-0.1,1-0.2,2-0.4,3.2c-0.2,1.2-0.3,2.4-0.5,3.6c-0.2,1.2-0.3,2-0.4,2.5h4.2V47H117.3z"/>
	<path class="st0" d="M148.2,39.1c-1.2,0.2-2.5,0.2-3.8,0.3c-1.1,0-2.3,0.1-3.5,0.1c-1.2,0-1.8,0-1.9,0v-7.9h1.6v6.5l3.8-0.1
		c1.2,0,2.4-0.1,3.7-0.3c1.2-0.1,2.2-0.3,2.9-0.4v1.3C150.4,38.8,149.5,39,148.2,39.1z M141,49.9v-4.8h11.4v-2.2H141v-1.3h13.1v4.7
		h-11.4v2.3h11.8v1.3H141z M154.1,36.2v4.5h-1.6v-9.9h1.6v4.1h2.9v1.4H154.1z"/>
	<path class="st0" d="M167.8,44.5c-0.9,1.3-2.1,2-3.7,2c-1.5,0-2.7-0.6-3.7-1.9s-1.4-3-1.4-5.2c0-2.2,0.5-3.9,1.4-5.2
		c0.9-1.3,2.1-1.9,3.7-1.9c1.5,0,2.8,0.6,3.7,1.9c0.9,1.3,1.4,3,1.4,5.2C169.2,41.5,168.8,43.2,167.8,44.5z M166.7,35.4
		c-0.6-1.1-1.4-1.7-2.5-1.7c-1.1,0-1.9,0.6-2.5,1.7s-0.9,2.4-0.9,3.9c0,1.6,0.3,2.9,0.9,4s1.4,1.7,2.5,1.7c1.1,0,1.9-0.6,2.5-1.7
		c0.6-1.1,0.9-2.4,0.9-4C167.6,37.8,167.3,36.5,166.7,35.4z M173.7,50.1V30.8h1.6v19.4H173.7z"/>
	<path class="st0" d="M186.6,34.9v-1.3h12.2v1.3H186.6z M188.9,41.3c-0.9-0.6-1.4-1.3-1.4-2.2c0-0.9,0.5-1.6,1.4-2.2
		c0.9-0.6,2.2-0.9,3.8-0.9c1.6,0,2.9,0.3,3.8,0.9c0.9,0.6,1.4,1.3,1.4,2.2c0,0.9-0.5,1.6-1.4,2.2c-0.9,0.6-2.2,0.9-3.8,0.9
		C191.1,42.2,189.8,41.9,188.9,41.3z M190.1,40.4c0.6,0.3,1.4,0.5,2.5,0.5c1.1,0,1.9-0.2,2.5-0.5c0.6-0.3,0.9-0.7,0.9-1.3
		c0-0.5-0.3-1-0.9-1.3c-0.6-0.3-1.4-0.5-2.5-0.5c-1.1,0-1.9,0.2-2.5,0.5c-0.6,0.3-0.9,0.8-0.9,1.3C189.2,39.6,189.5,40.1,190.1,40.4
		z M189.4,32.2v-1.3h6.4v1.3H189.4z M189.5,49.9v-6.1h13.2v6.1H189.5z M201,45.1h-9.9v3.5h9.9V45.1z M202.7,37.2v5.3H201V30.8h1.6
		v5.1h2.9v1.4H202.7z"/>
	<path class="st0" d="M212.1,36.7c-0.3,1.4-0.6,2.5-1,3.5c-0.6,1.3-1.1,2.4-1.7,3.3c-0.5,0.9-1.1,1.6-1.6,2.2l-1.3-0.5
		c0.5-0.6,1-1.3,1.6-2.1s1.1-1.8,1.6-2.9c0.5-1.1,0.8-2.2,1-3.1c0.2-1,0.3-1.7,0.3-2.3h-3.2v-1.4h4.8
		C212.5,34.2,212.3,35.3,212.1,36.7z M216.8,36.5c-0.2,1.6-0.6,3.1-1.2,4.4c-0.6,1.5-1.2,2.7-1.9,3.7s-1.2,1.8-1.7,2.3l-1.4-0.5
		c0.5-0.5,1-1.3,1.7-2.3c0.7-1,1.3-2.1,1.7-3.3c0.5-1.2,0.8-2.3,1-3.4c0.2-1.1,0.3-2,0.3-2.7h-2.4v-1.4h4.1
		C217.1,33.9,217,34.9,216.8,36.5z M219,49.2v-9.3h-2.4v-1.4h2.4v-7.3h1.6v18H219z M222.9,50.1V30.8h1.6v19.4H222.9z"/>
	<path class="st0" d="M234.7,34.9v-1.3h12.2v1.3H234.7z M237.1,40.9c-0.9-0.6-1.4-1.2-1.4-2c0-0.8,0.5-1.5,1.4-2.1
		c0.9-0.6,2.2-0.8,3.8-0.8c1.6,0,2.9,0.3,3.8,0.9c0.9,0.6,1.4,1.3,1.4,2.1s-0.5,1.5-1.4,2c-0.9,0.6-2.2,0.8-3.8,0.8
		C239.2,41.7,238,41.4,237.1,40.9z M238.3,40c0.6,0.3,1.4,0.4,2.5,0.4c1.1,0,2-0.1,2.5-0.4c0.6-0.3,0.8-0.7,0.8-1.2
		c0-0.4-0.3-0.8-0.8-1.2c-0.6-0.3-1.4-0.5-2.5-0.5c-1.1,0-1.9,0.2-2.5,0.5c-0.6,0.3-0.9,0.7-0.9,1.2C237.4,39.3,237.7,39.7,238.3,40
		z M237.6,32.2v-1.3h6.4v1.3H237.6z M237.7,49.9v-7.1h1.6v2.1h9.9v-2.1h1.6v7.1H237.7z M249.2,46.2h-9.9v2.3h9.9V46.2z M250.8,37.1
		v4.6h-1.6v-11h1.6v5h2.9v1.3H250.8z"/>
	<path class="st0" d="M265.5,45c-1.2,0.2-2.4,0.3-3.6,0.3c-1.1,0-2.3,0.1-3.6,0.1c-1.3,0-2,0-2.1,0V32.6h1.7V44l4.1,0
		c1,0,2.2-0.1,3.4-0.3c1.3-0.2,2.3-0.3,3-0.5v1.4C267.7,44.6,266.8,44.8,265.5,45z M269.8,50.1V30.8h1.7v19.4H269.8z"/>
	<path class="st0" d="M285.1,45.3c-1.2,0.1-2.4,0.2-3.7,0.2c-1.2,0-2.4,0.1-3.6,0.1c-1.2,0-1.8,0-1.9,0V33.1h9.5v1.4h-7.8v9.7l4.3,0
		c1,0,2.1-0.1,3.2-0.2s2-0.2,2.4-0.3V45C287.1,45,286.3,45.1,285.1,45.3z M290.6,40v10.1H289V30.8h1.6v7.9h3.1V40H290.6z"/>
	<path class="st0" d="M295.8,50.1v-2.3h2.4v2.3H295.8z M297.4,45.1h-0.8l-0.5-5.5V31h1.9v8.6L297.4,45.1z"/>
</g>
<g>
</g>
<g>
</g>
<g>
</g>
<g>
</g>
<g>
</g>
<g>
</g>
<g>
</g>
<g>
</g>
<g>
</g>
<g>
</g>
<g>
</g>
<g>
</g>
<g>
</g>
<g>
</g>
<g>
</g>
</svg>
