<?xml version="1.0" encoding="utf-8"?>
<!-- Generator: Adobe Illustrator 23.1.0, SVG Export Plug-In . SVG Version: 6.00 Build 0)  -->
<svg version="1.1" id="레이어_1" xmlns="http://www.w3.org/2000/svg" xmlns:xlink="http://www.w3.org/1999/xlink" x="0px"
	 y="0px" viewBox="0 0 294.8 326" style="enable-background:new 0 0 294.8 326;" xml:space="preserve">
<style type="text/css">
	.st0{fill:#FFFFFF;}
	.st1{fill:#343535;}
</style>
<path class="st0" d="M148.7-0.1h-2.5C65.5-0.1,0.2,65.2,0.2,145.8v3.7c0,55.4,30.9,103.7,76.5,128.4c-1.1,5.3-4.5,13.6-9.9,20.8
	c-6.2,8.3-14,18-17.5,21.8c-3.6,3.8-0.3,5.6,10.4,2.8c10.7-2.8,33.2-11.4,50-21.1c7.5-4.4,12-6.8,15.1-8.4c7,1,14.1,1.8,21.4,1.8
	h2.5c80.6,0,145.9-65.3,145.9-145.9v-3.7C294.6,65.2,229.3-0.1,148.7-0.1z"/>
<path class="st1" d="M70.6,143.4h31.3v31H70.6c-5,0-9.2-1.4-12.6-4.2c-3.3-2.7-4.9-6.5-4.9-11.4c0-4.7,1.6-8.4,5-11.2
	C61.5,144.7,65.6,143.4,70.6,143.4z"/>
<path class="st1" d="M217.4,157.2c-9.4,11.5-23.4,17.3-41.3,17.3h-21.2v-31h11.6c8.7,0,15.2-2.3,19.9-7c4.3-4.4,6.6-10.4,6.6-17.9
	c-0.4-6.9-2.9-12.4-7.4-16.5c-4.5-4-10.2-6.1-17.1-6.1h-22.7v115.7c0,5.7-1.6,10.5-4.8,14.4c-3.1,3.8-7.4,5.7-13,5.7
	c-5.6,0-9.9-1.9-13.2-5.7c-3.3-3.9-4.9-8.6-4.9-14.4V87c0-7,1.9-12.3,5.8-16.2c3.8-3.9,9.3-5.8,16.3-5.8h39
	c18.4,0,32.4,4.6,41.7,13.6c3.4,3.3,6.5,7.1,9.1,11.5c2.6,4.4,4.7,9,6,13.9c1.4,4.9,2,9.8,2,14.6
	C229.9,134.3,225.7,147.4,217.4,157.2z"/>
</svg>
