<?xml version="1.0" encoding="utf-8"?>
<!-- Generator: Adobe Illustrator 23.1.0, SVG Export Plug-In . SVG Version: 6.00 Build 0)  -->
<svg version="1.1" id="레이어_1" xmlns="http://www.w3.org/2000/svg" xmlns:xlink="http://www.w3.org/1999/xlink" x="0px"
	 y="0px" viewBox="0 0 260 25" style="enable-background:new 0 0 260 25;" xml:space="preserve">
<style type="text/css">
	.st0{fill:#FFFFFF;}
</style>
<g>
	<path class="st0" d="M2,5.7V1.5h0.6V3h2.6V1.5h0.6v4.2H2z M5.2,3.6H2.6v1.5h2.6V3.6z M3.2,10.1V6.5h0.6v1.2H8V6.5h0.6v3.6H3.2z
		 M8,8.3H3.8v1.3H8V8.3z M6.4,3.9V3.3H8V1h0.6v5H8V3.9H6.4z"/>
	<path class="st0" d="M11.1,10.1v-2h5.2V7.3h-5.2V6.8h1.1v-1h-2.1V5.2h7.8v0.6h-2.1v1h1.1v1.8h-5.2v0.9h5.5v0.6H11.1z M11.2,4.4V2.6
		h5.1V1.9h-5.1V1.3h5.7v1.8h-5.1v0.8H17v0.5H11.2z M12.9,6.8h2.3v-1h-2.3V6.8z"/>
	<path class="st0" d="M23.4,8c-0.8-0.6-1.9-1.8-2.2-2.9c-0.3,1.2-1.2,2.3-2.2,3.2l-0.4-0.5c1.2-0.8,2.3-2.5,2.3-4.1V1.8h0.7v1.7
		c0,1.7,1.1,3.2,2.3,3.9L23.4,8z M25.3,5.3v4.9h-0.6V1h0.6v3.8h1.4v0.6H25.3z"/>
	<path class="st0" d="M30.8,10.3V7h-3.6V6.5h7.8V7h-3.6v3.2H30.8z M28.3,5.2V1.6H34v3.6H28.3z M33.4,2.1h-4.5v2.4h4.5V2.1z"/>
	<path class="st0" d="M35.8,9.1V8.5h3.6V6.1H40v2.4h3.6v0.6H35.8z M42.9,6.2c-1.5-0.5-2.9-1.9-3.2-2.8c-0.3,0.9-1.6,2.2-3.2,2.7
		l-0.3-0.5c1.4-0.3,3.2-1.8,3.2-3.3V1.7H40v0.6c0,1.5,1.9,3,3.2,3.3L42.9,6.2z"/>
	<path class="st0" d="M47,8.9V8.3h7.8v0.6H47z M53.6,2.1c0,1.6-0.1,4.2-0.4,5.4l-0.6-0.1c0.2-0.9,0.4-3.5,0.4-4.7h-5.1V2.1H53.6z"/>
	<path class="st0" d="M60.6,4.8c-1.1,0.2-3.1,0.4-4.8,0.4V1.5h0.6v3.1c1.3,0,3-0.2,4-0.4L60.6,4.8z M56.7,10.2V7.9h4.8v-1h-4.8V6.3
		h5.5v2.2h-4.8v1.2h5.1v0.6H56.7z M62.1,3.6v2.1h-0.6V1h0.6v2h1.3v0.6H62.1z"/>
	<path class="st0" d="M64.1,6.4V5.8h7.8v0.6H64.1z M68,4.8c-1.8,0-2.9-0.6-2.9-1.8c0-1.2,1.1-1.7,2.9-1.7s2.9,0.6,2.9,1.7
		C70.9,4.2,69.8,4.8,68,4.8z M65.1,10V7.3h0.6v2.1h5.2V10H65.1z M65.7,3.1c0,0.8,0.9,1.2,2.3,1.2c1.4,0,2.3-0.4,2.3-1.2
		S69.4,1.9,68,1.9C66.6,1.9,65.7,2.3,65.7,3.1z"/>
	<path class="st0" d="M80.1,7.9c-0.8-0.6-1.9-1.7-2.2-2.9c-0.3,1.2-1.2,2.4-2.2,3.1l-0.4-0.5c1.2-0.8,2.3-2.4,2.3-4V2.5h-2V2h4.8
		v0.6h-2.1v1.1c0,1.7,1.2,3.2,2.3,3.8L80.1,7.9z M82.3,1v9.3h-0.6V1H82.3z"/>
	<path class="st0" d="M83.8,6.2V5.7h3.6V4.2H88v1.5h3.6v0.6H83.8z M90.9,4.6c-1.5-0.3-2.8-1.4-3.2-2.2c-0.3,0.8-1.6,1.9-3.2,2.2
		l-0.3-0.5c1.4-0.2,3.2-1.3,3.2-2.6V1.1H88v0.4c0,1.3,1.8,2.4,3.2,2.6L90.9,4.6z M90.6,7.3v3H90V7.9h-5.3V7.3H90.6z"/>
	<path class="st0" d="M96.9,6c-0.9-0.5-1.7-1.3-2.1-2.3c-0.3,1-1.1,1.9-2.2,2.5l-0.4-0.5c1.2-0.6,2.2-1.8,2.2-3.3V1.5h0.6v0.9
		c0,1.5,1.2,2.6,2.1,3L96.9,6z M96.6,10.3c-1.8,0-2.9-0.7-2.9-1.7s1-1.7,2.9-1.7c1.8,0,2.9,0.7,2.9,1.7S98.5,10.3,96.6,10.3z
		 M94.4,8.5c0,0.7,0.8,1.2,2.2,1.2c1.4,0,2.2-0.4,2.2-1.2c0-0.7-0.8-1.2-2.2-1.2C95.2,7.4,94.4,7.8,94.4,8.5z M96.9,3.7V3.1h1.8V1
		h0.6v5.6h-0.6V3.7H96.9z"/>
	<path class="st0" d="M105.6,3.8c0,1.4-1,2.2-2.2,2.2s-2.2-0.9-2.2-2.2c0-1.4,1-2.2,2.2-2.2S105.6,2.5,105.6,3.8z M101.8,3.8
		c0,1,0.7,1.6,1.6,1.6c0.9,0,1.6-0.6,1.6-1.6c0-1-0.6-1.6-1.6-1.6C102.5,2.2,101.8,2.9,101.8,3.8z M102.3,9.9V7.1h0.6v2.2h5.2v0.6
		H102.3z M107.3,7.7V1h0.6v6.7H107.3z"/>
	<path class="st0" d="M116.6,6c-0.9-0.5-1.7-1.3-2.1-2.3c-0.3,1-1.1,1.9-2.2,2.5L112,5.7c1.2-0.6,2.2-1.8,2.2-3.3V1.5h0.6v0.9
		c0,1.5,1.2,2.6,2.1,3L116.6,6z M116.3,10.3c-1.8,0-2.9-0.7-2.9-1.7s1-1.7,2.9-1.7c1.8,0,2.9,0.7,2.9,1.7S118.2,10.3,116.3,10.3z
		 M114.1,8.5c0,0.7,0.8,1.2,2.2,1.2c1.4,0,2.2-0.4,2.2-1.2c0-0.7-0.8-1.2-2.2-1.2C114.9,7.4,114.1,7.8,114.1,8.5z M116.6,3.7V3.1
		h1.8V1h0.6v5.6h-0.6V3.7H116.6z"/>
	<path class="st0" d="M120.7,1.7h4.5v0.6h-1.9v0.5c0,1.2,1.1,2.3,2.1,2.7l-0.4,0.6c-0.9-0.4-1.7-1.3-2.1-2.1
		c-0.2,0.9-1.2,1.9-2.2,2.4l-0.4-0.5c1.1-0.5,2.2-1.7,2.2-3V2.3h-2V1.7z M124.5,10.3c-1.8,0-2.9-0.7-2.9-1.7c0-1.1,1.1-1.8,2.9-1.8
		c1.8,0,2.9,0.7,2.9,1.8C127.4,9.6,126.3,10.3,124.5,10.3z M122.2,8.5c0,0.8,0.9,1.2,2.2,1.2c1.4,0,2.2-0.4,2.2-1.2
		c0-0.8-0.9-1.2-2.2-1.2C123.1,7.3,122.2,7.7,122.2,8.5z M127.2,4.2v2.4h-0.6V1h0.6v2.7h1.4v0.6H127.2z"/>
	<path class="st0" d="M134.6,7.9c-0.8,0.1-2.1,0.2-2.9,0.3c-0.9,0-1.9,0.1-2.6,0.1L129,7.6c0.5,0,1.3,0,2,0v-3h0.6v2.9
		c1.1,0,2.2-0.1,3-0.3L134.6,7.9z M133.9,2c0,1.2-0.1,3.1-0.3,4.1L133,6.1c0.1-0.7,0.3-2.4,0.3-3.5h-3.8V2H133.9z M135.8,5.5v4.8
		h-0.6V1h0.6v3.9h1.4v0.6H135.8z"/>
	<path class="st0" d="M142.8,4v0.5c0,1.7,1.1,2.8,1.9,3.3l-0.4,0.5c-0.8-0.5-1.6-1.5-1.8-2.4c-0.2,1-1,2.1-1.8,2.6L140.3,8
		c0.9-0.6,1.9-1.9,1.9-3.5V4h-1.7V3.4h4V4H142.8z M141.3,1.8h2.3v0.6h-2.3V1.8z M143.9,5.5V5h1.4V1.2h0.6v8.6h-0.6V5.5H143.9z
		 M147,10.3V1h0.6v9.3H147z"/>
	<path class="st0" d="M152.4,2.2c-0.1,2.8-1.2,4.6-3.2,6l-0.4-0.5c1.8-1.1,2.9-3,2.9-4.9h-2.6V2.2H152.4z M153.9,9.8V6.5h-1.5V5.9
		h1.5V4.1h-1.3V3.6h1.3V1.2h0.6v8.6H153.9z M155.5,10.3V1h0.6v9.3H155.5z"/>
	<path class="st0" d="M157.8,1.7h4.5v0.6h-1.9v0.6c0,1.2,1.1,2.3,2.1,2.7l-0.4,0.6c-0.9-0.4-1.7-1.3-2.1-2.1
		c-0.2,0.9-1.2,1.9-2.2,2.4l-0.4-0.5c1.1-0.5,2.3-1.7,2.3-3V2.3h-2V1.7z M163.9,10.3V7.6h-5.1V7h5.7v3.2H163.9z M162.1,4V3.5h1.7V1
		h0.6v5.6h-0.6V4H162.1z"/>
	<path class="st0" d="M170.7,3.8c0,1.4-1,2.2-2.2,2.2s-2.2-0.9-2.2-2.2c0-1.4,1-2.2,2.2-2.2S170.7,2.5,170.7,3.8z M166.9,3.8
		c0,1,0.7,1.6,1.6,1.6c0.9,0,1.6-0.6,1.6-1.6c0-1-0.6-1.6-1.6-1.6C167.6,2.2,166.9,2.9,166.9,3.8z M167.4,9.9V7.1h0.6v2.2h5.2v0.6
		H167.4z M172.4,7.7V1h0.6v6.7H172.4z"/>
	<path class="st0" d="M177.5,1.9h4.5v0.6h-1.9v0.7c0,1.2,1.1,2.3,2.1,2.7l-0.4,0.5c-0.9-0.4-1.7-1.3-2.1-2.1
		c-0.2,0.9-1.2,1.9-2.2,2.4l-0.4-0.5c1.1-0.5,2.3-1.8,2.3-3V2.4h-2V1.9z M178.7,9.9V7.1h0.6v2.3h5.1v0.6H178.7z M181.9,4.2V3.6h1.7
		V1h0.6v6.8h-0.6V4.2H181.9z"/>
	<path class="st0" d="M190.8,5.9c-1.3,0.2-2.8,0.3-4.7,0.3V3.5h3.2V2.2h-3.2V1.6h3.8v2.5h-3.2v1.5c0.9,0,2.7,0,4-0.3L190.8,5.9z
		 M191.7,10.3V7.7h-5V7.2h5.6v3.1H191.7z M193.7,5h-1.3v1.6h-0.6V1h0.6v1.6h1.3v0.6h-1.3v1.3h1.3V5z"/>
	<path class="st0" d="M194.3,5.6V5.1h7.8v0.5H194.3z M195.3,10.1V8h5.1V7.1h-5.2V6.5h5.8v2.1h-5.1v0.9h5.5v0.6H195.3z M198.2,4.4
		c-1.8,0-2.9-0.5-2.9-1.6c0-1.1,1.1-1.6,2.9-1.6c1.8,0,2.9,0.5,2.9,1.6C201.1,3.9,200,4.4,198.2,4.4z M195.9,2.8c0,0.7,0.9,1,2.3,1
		c1.4,0,2.3-0.3,2.3-1s-0.9-1-2.3-1C196.8,1.8,195.9,2.1,195.9,2.8z"/>
	<path class="st0" d="M209.7,5v1h3.6v0.6h-7.8V6h3.6V5h-2.5V1.5h5.7v0.6h-5v0.8h4.8v0.5h-4.8v0.9h5.1V5H209.7z M209.3,10.3
		c-1.9,0-3-0.6-3-1.6c0-1,1.1-1.6,3-1.6c1.9,0,3,0.5,3,1.6C212.3,9.7,211.2,10.3,209.3,10.3z M207,8.7c0,0.7,0.9,1,2.3,1
		c1.4,0,2.3-0.4,2.3-1c0-0.6-0.9-1-2.3-1C207.9,7.6,207,8,207,8.7z"/>
	<path class="st0" d="M214,3.8V3.2h4.3v0.6H214z M216.2,8c-1,0-1.8-0.8-1.8-1.8c0-1.1,0.7-1.8,1.8-1.8c1.1,0,1.8,0.7,1.8,1.8
		C218,7.3,217.3,8,216.2,8z M215.1,2.3V1.7h2.3v0.6H215.1z M216.2,5c-0.7,0-1.2,0.5-1.2,1.2c0,0.7,0.5,1.2,1.2,1.2
		c0.7,0,1.2-0.5,1.2-1.2C217.4,5.5,216.9,5,216.2,5z M220.6,10.3V5.5h-1.2v4.3h-0.6V1.2h0.6v3.7h1.2V1h0.6v9.3H220.6z"/>
	<path class="st0" d="M229.7,8.3c-0.9-0.5-1.8-1.5-2.1-2.5c-0.3,1-1.3,2.2-2.1,2.8L225,8.1c1-0.5,2.2-2,2.2-3.6V3.8h-1.9V3.3h4.6
		v0.6h-2v0.6c0,1.6,1.3,3,2.2,3.3L229.7,8.3z M226.3,2.3V1.7h2.6v0.6H226.3z M231.8,5.5v4.8h-0.6V1h0.6v3.9h1.5v0.6H231.8z"/>
	<path class="st0" d="M234.2,5.6V1.4h0.6v1.5h2.5V1.4h0.6v4.1H234.2z M237.3,3.5h-2.5V5h2.5V3.5z M235.3,10.2V7.9h4.9V7h-4.9V6.4
		h5.5v2.1h-4.9v1.1h5.2v0.6H235.3z M240.8,5.9h-0.6V4.6h-1.7V4.1h1.7V3h-1.7V2.4h1.7V1h0.6V5.9z"/>
	<path class="st0" d="M245.1,7v1c1-0.1,2-0.1,2.6-0.2l0,0.6c-0.6,0.1-1.8,0.2-2.8,0.3c-1,0.1-1.8,0.1-2.6,0.1l-0.1-0.6
		c0.6,0,1.4,0,2.3,0V7c-1-0.1-1.7-0.7-1.7-1.5c0-0.9,0.8-1.5,2-1.5c1.2,0,2,0.5,2,1.5C246.9,6.4,246.2,7,245.1,7z M242.3,3.5V2.9
		h5.1v0.6H242.3z M244.8,4.6c-0.8,0-1.4,0.4-1.4,1c0,0.6,0.6,1,1.4,1c0.8,0,1.4-0.4,1.4-1C246.2,4.9,245.7,4.6,244.8,4.6z
		 M243.6,2.1V1.5h2.4v0.6H243.6z M248.9,5.8v4.5h-0.6V1h0.6v4.2h1.4v0.6H248.9z"/>
	<path class="st0" d="M256.5,6.3c-0.6,0.1-1.7,0.2-2.8,0.2c-1,0.1-2.3,0.1-2.8,0.1L250.9,6c0.6,0,1.5,0,2.5,0V4.6h-1.8v-3h4.2v0.6
		h-3.6v1.9h3.7v0.6H254V6c1,0,2-0.1,2.5-0.2L256.5,6.3z M252.3,10V7.4h0.6v2.1h5.1V10H252.3z M257.2,7.9V1h0.6v6.9H257.2z"/>
	<path class="st0" d="M2,20.7v-4.2h0.6V18h2.6v-1.5h0.6v4.2H2z M5.2,18.6H2.6v1.5h2.6V18.6z M3.2,25.1v-3.6h0.6v1.2H8v-1.2h0.6v3.6
		H3.2z M8,23.3H3.8v1.3H8V23.3z M6.4,18.9v-0.6H8V16h0.6v5H8v-2.1H6.4z"/>
	<path class="st0" d="M11.1,25.1v-2h5.2v-0.8h-5.2v-0.5h1.1v-1h-2.1v-0.6h7.8v0.6h-2.1v1h1.1v1.8h-5.2v0.9h5.5v0.6H11.1z M11.2,19.4
		v-1.9h5.1v-0.7h-5.1v-0.6h5.7v1.8h-5.1v0.8H17v0.5H11.2z M12.9,21.8h2.3v-1h-2.3V21.8z"/>
	<path class="st0" d="M23.4,23c-0.8-0.6-1.8-1.8-2.1-2.9c-0.3,1.2-1.2,2.3-2.2,3.2l-0.4-0.5c1.2-0.8,2.3-2.5,2.3-4.1v-1.8h0.7v1.8
		c0,1.7,1.1,3.2,2.2,3.9L23.4,23z M25.1,25.3v-5.3h-2v-0.6h2V16h0.6v9.3H25.1z"/>
	<path class="st0" d="M27.8,22.9v-6.1h0.6v2.4h2.7v-2.4h0.6v6.1H27.8z M31.1,19.7h-2.7v2.6h2.7V19.7z M33.6,25.3V16h0.6v9.3H33.6z"
		/>
	<path class="st0" d="M35.8,24v-0.6h7.8V24H35.8z M42.9,21.3c-1.5-0.5-2.9-1.9-3.2-2.7c-0.3,0.9-1.6,2.2-3.2,2.7l-0.3-0.5
		c1.4-0.3,3.2-1.8,3.2-3.3v-0.7H40v0.7c0,1.5,1.9,3,3.2,3.3L42.9,21.3z"/>
	<path class="st0" d="M44.4,20.9v-0.5h7.8v0.5H44.4z M45.3,25.1v-2h5.2v-0.8h-5.2v-0.5h5.8v1.9H46v0.9h5.5v0.6H45.3z M45.4,19.5
		v-1.9h5.1v-0.8h-5.1v-0.6h5.7v1.9H46V19h5.2v0.5H45.4z"/>
	<path class="st0" d="M59.5,23.1c-0.6-0.5-1.5-1.6-1.8-2.6c-0.2,1.1-1,2.1-1.8,2.9l-0.4-0.5c0.9-0.6,2-2.1,2-3.9v-1.2h-1.7v-0.6h4
		v0.6H58v1.2c0,1.8,1,3.1,1.9,3.7L59.5,23.1z M60.5,24.8V20H59v-0.6h1.4v-3.2h0.6v8.6H60.5z M62.2,25.3V16h0.6v9.3H62.2z"/>
	<path class="st0" d="M64.1,20.9v-0.6h3.3v-1.9H68v1.9h3.8v0.6H64.1z M68,25.2c-2,0-3-0.6-3-1.7s1-1.7,3-1.7c2,0,3,0.6,3,1.7
		S69.9,25.2,68,25.2z M70.9,17.4c0,0.7-0.1,1.6-0.3,2.3L70,19.6c0.1-0.5,0.2-1.2,0.2-1.8l0-0.7h-5.2v-0.6h5.8V17.4z M65.6,23.5
		c0,0.7,0.9,1.1,2.3,1.1c1.4,0,2.3-0.4,2.3-1.1c0-0.7-0.9-1.1-2.3-1.1C66.5,22.4,65.6,22.8,65.6,23.5z"/>
	<path class="st0" d="M72.6,18.8v-0.6h5.1v0.6H72.6z M75.2,23.3c-1.2,0-2-0.8-2-1.9c0-1.1,0.8-1.9,2-1.9c1.2,0,2,0.8,2,1.9
		C77.2,22.4,76.4,23.3,75.2,23.3z M73.8,17.3v-0.6h2.5v0.6H73.8z M75.2,20c-0.8,0-1.4,0.5-1.4,1.3s0.6,1.3,1.4,1.3
		c0.8,0,1.4-0.5,1.4-1.3S76,20,75.2,20z M79.2,20.5v4.8h-0.6V16h0.6v4h1.4v0.6H79.2z"/>
	<path class="st0" d="M81.2,21.4v-0.6H89v0.6H81.2z M82.3,25v-2.7h0.6v2.1h5.2V25H82.3z M82.3,19.5v-3.2h0.6v2.6h5.1v0.6H82.3z"/>
	<path class="st0" d="M92.8,20.7v-4.2h0.6V18H96v-1.5h0.6v4.2H92.8z M96,18.6h-2.6v1.5H96V18.6z M93.9,25.1v-3.6h0.6v1.2h4.2v-1.2
		h0.6v3.6H93.9z M98.8,23.3h-4.2v1.3h4.2V23.3z M97.1,18.9v-0.6h1.6V16h0.6v5h-0.6v-2.1H97.1z"/>
	<path class="st0" d="M101.9,25.1v-2h5.2v-0.8h-5.2v-0.5h1.1v-1h-2.1v-0.6h7.8v0.6h-2.1v1h1.1v1.8h-5.2v0.9h5.5v0.6H101.9z
		 M102,19.4v-1.9h5.1v-0.7h-5.1v-0.6h5.7v1.8h-5.1v0.8h5.2v0.5H102z M103.6,21.8h2.3v-1h-2.3V21.8z"/>
	<path class="st0" d="M114.1,23c-0.8-0.6-1.9-1.8-2.2-2.9c-0.3,1.2-1.2,2.3-2.2,3.2l-0.4-0.5c1.2-0.8,2.3-2.5,2.3-4.1v-1.8h0.7v1.7
		c0,1.7,1.1,3.2,2.3,3.9L114.1,23z M116.1,20.3v4.9h-0.6V16h0.6v3.8h1.4v0.6H116.1z"/>
	<path class="st0" d="M121.6,25.3V22H118v-0.6h7.8V22h-3.6v3.2H121.6z M119.1,20.2v-3.6h5.7v3.6H119.1z M124.1,17.1h-4.5v2.4h4.5
		V17.1z"/>
	<path class="st0" d="M126.6,24.1v-0.6h3.6v-2.4h0.6v2.4h3.6v0.6H126.6z M133.7,21.2c-1.5-0.5-2.9-1.9-3.2-2.8
		c-0.3,0.9-1.6,2.2-3.2,2.7l-0.3-0.5c1.4-0.3,3.2-1.8,3.2-3.3v-0.6h0.7v0.6c0,1.5,1.9,3,3.2,3.3L133.7,21.2z"/>
	<path class="st0" d="M135.1,24.1v-0.6h3.6v-1.7h-2.5v-2.9h5.1v-1.6h-5.1v-0.6h5.7v2.7h-5.1v1.7h5.3v0.6h-2.8v1.7h3.6v0.6H135.1z"/>
	<path class="st0" d="M150.8,21c-0.9-0.5-1.7-1.3-2.1-2.3c-0.3,1-1.1,1.9-2.2,2.5l-0.4-0.5c1.2-0.7,2.2-1.8,2.2-3.3v-0.9h0.6v0.9
		c0,1.5,1.2,2.6,2.1,3L150.8,21z M150.6,25.3c-1.8,0-2.9-0.7-2.9-1.7s1-1.7,2.9-1.7c1.8,0,2.9,0.7,2.9,1.7S152.4,25.3,150.6,25.3z
		 M148.3,23.5c0,0.7,0.8,1.2,2.2,1.2c1.4,0,2.2-0.4,2.2-1.2c0-0.7-0.8-1.2-2.2-1.2C149.1,22.4,148.3,22.8,148.3,23.5z M150.9,18.7
		v-0.6h1.8V16h0.6v5.6h-0.6v-2.9H150.9z"/>
	<path class="st0" d="M155,16.7h4.5v0.6h-1.9v0.5c0,1.2,1.1,2.3,2.1,2.7l-0.4,0.6c-0.9-0.4-1.7-1.3-2.1-2.1
		c-0.2,0.9-1.2,1.9-2.2,2.4l-0.4-0.5c1.1-0.5,2.2-1.7,2.2-3v-0.5h-2V16.7z M158.7,25.3c-1.8,0-2.9-0.7-2.9-1.7
		c0-1.1,1.1-1.8,2.9-1.8c1.8,0,2.9,0.7,2.9,1.8C161.6,24.6,160.5,25.3,158.7,25.3z M156.5,23.5c0,0.8,0.9,1.2,2.2,1.2
		c1.4,0,2.2-0.4,2.2-1.2c0-0.8-0.9-1.2-2.2-1.2C157.3,22.3,156.5,22.7,156.5,23.5z M161.5,19.2v2.4h-0.6V16h0.6v2.7h1.4v0.6H161.5z"
		/>
	<path class="st0" d="M163.4,18.8v-0.6h5.1v0.6H163.4z M166,23.3c-1.2,0-2-0.8-2-1.9c0-1.1,0.8-1.9,2-1.9c1.2,0,2,0.8,2,1.9
		C168,22.4,167.2,23.3,166,23.3z M164.6,17.3v-0.6h2.5v0.6H164.6z M166,20c-0.8,0-1.4,0.5-1.4,1.3s0.6,1.3,1.4,1.3
		c0.8,0,1.4-0.5,1.4-1.3S166.7,20,166,20z M170,20.5v4.8h-0.6V16h0.6v4h1.4v0.6H170z"/>
	<path class="st0" d="M172,23.9v-0.6h3.1V20h0.6v3.3h4.1v0.6H172z M178.7,18.2c0,1.3-0.1,2.7-0.3,3.9l-0.6-0.1
		c0.2-0.8,0.3-2.2,0.3-3.4v-1h-5.2V17h5.9V18.2z"/>
	<path class="st0" d="M185.1,18.7c0,1.3-1,2.1-2.2,2.1s-2.2-0.8-2.2-2.1c0-1.3,1-2.1,2.2-2.1S185.1,17.4,185.1,18.7z M184.3,24.6
		c-0.5-0.3-1-0.8-1.2-1.3c-0.2,0.7-1,1.6-1.7,2l-0.4-0.5c0.9-0.4,1.8-1.4,1.8-2.6v-0.5h0.6v0.5c0,1,0.7,1.7,1.3,2L184.3,24.6z
		 M181.4,18.7c0,0.9,0.7,1.5,1.5,1.5c0.9,0,1.5-0.6,1.5-1.5c0-0.9-0.6-1.5-1.5-1.5C182.1,17.1,181.4,17.7,181.4,18.7z M187.9,25.3
		c-0.6-0.3-1.4-1.1-1.6-1.8c-0.2,0.7-1,1.6-1.7,1.9l-0.4-0.4c0.9-0.5,1.8-1.5,1.8-2.6v-0.6h0.6v0.6c0,1.1,0.9,2.2,1.7,2.5
		L187.9,25.3L187.9,25.3z M186.9,21.4V16h0.6v5.4H186.9z"/>
	<path class="st0" d="M189.1,20.8v-0.6h7.8v0.6H189.1z M196.1,19.5c-1.3-0.3-2.7-1.2-3.1-2.2c-0.4,0.9-1.8,1.9-3.1,2.2l-0.3-0.5
		c1.3-0.2,3.1-1.3,3.1-2.5v-0.3h0.7v0.3c0,1.3,1.8,2.4,3.1,2.5L196.1,19.5z M190.1,25.1v-3.5h0.6v1.1h4.4v-1.1h0.6v3.5H190.1z
		 M195.2,23.3h-4.4v1.2h4.4V23.3z"/>
	<path class="st0" d="M203.2,22.5c-1.2,0.3-3.4,0.5-5,0.5v-6h0.6v5.4c1.1,0,3.2-0.2,4.2-0.4L203.2,22.5z M203.9,25.3V16h0.6v9.3
		H203.9z"/>
	<path class="st0" d="M211.4,22.6c-1.2,0.2-2.9,0.4-4.9,0.3v-6h4v0.6h-3.4v4.8c1.3,0.1,3.2-0.1,4.1-0.3L211.4,22.6z M212.8,20.3v5
		h-0.6V16h0.6v3.7h1.4v0.6H212.8z"/>
	<path class="st0" d="M214.8,23.4h0.8v0.9h-0.8V23.4z"/>
</g>
<g>
</g>
<g>
</g>
<g>
</g>
<g>
</g>
<g>
</g>
<g>
</g>
<g>
</g>
<g>
</g>
<g>
</g>
<g>
</g>
<g>
</g>
<g>
</g>
<g>
</g>
<g>
</g>
<g>
</g>
</svg>
