<?xml version="1.0" encoding="utf-8"?>
<!-- Generator: Adobe Illustrator 23.1.0, SVG Export Plug-In . SVG Version: 6.00 Build 0)  -->
<svg version="1.1" id="레이어_1" xmlns="http://www.w3.org/2000/svg" xmlns:xlink="http://www.w3.org/1999/xlink" x="0px"
	 y="0px" viewBox="0 0 310 16" style="enable-background:new 0 0 310 16;" xml:space="preserve">
<style type="text/css">
	.st0{opacity:0.8;}
	.st1{fill:#FFFFFF;stroke:#FFFFFF;stroke-width:0.5;stroke-miterlimit:10;}
</style>
<g class="st0">
	<g>
		<path class="st1" d="M10.5,10.9c-2.5,0.3-4.6,0.3-9.2,0.3v-0.9c4.4,0,6.8-0.1,9.1-0.3L10.5,10.9z M2.1,5.1V4.3
			c0-1.6,1.6-2.9,3.6-2.9c1.9,0,3.6,1.3,3.6,2.9v0.7C9.2,6.7,7.6,8,5.6,8C3.7,8,2.1,6.7,2.1,5.1z M3.1,4.4V5c0,1.1,1.2,2,2.5,2
			c1.3,0,2.5-0.9,2.5-2V4.4c0-1.1-1.2-2-2.5-2C4.3,2.4,3.1,3.3,3.1,4.4z M12.5,14.2h-1.1V0.5h1.1V14.2z"/>
		<path class="st1" d="M23.1,8H20v2.3c1.6,0,2.9-0.1,4.1-0.3l0.1,0.9c-2.5,0.3-4.6,0.3-9.2,0.3v-0.9c1.5,0,2.8,0,4,0V8h-3V4.3h5.7
			V2.5h-5.7V1.6h6.8v3.7H17v1.8h6.1V8z M26.2,14.2h-1.1V0.5h1.1V14.2z"/>
		<path class="st1" d="M28.9,5V4.1c0-1.5,1.3-3,3.4-3c2.1,0,3.4,1.5,3.4,3V5c0,1.5-1.3,3-3.4,3C30.2,8.1,28.9,6.5,28.9,5z M29.9,4.2
			V5c0,1.1,1,2.2,2.4,2.2c1.4,0,2.4-1,2.4-2.2V4.2c0-1.1-1-2.2-2.4-2.2C30.9,2.1,29.9,3.1,29.9,4.2z M32.3,13.1H40v0.9h-8.7V9.6h1.1
			V13.1z M39.6,10.3h-1V0.5h1V10.3z"/>
		<path class="st1" d="M51.5,10.9c-2.5,0.3-4.6,0.3-9.2,0.3v-0.9c4.4,0,6.8-0.1,9.1-0.3L51.5,10.9z M43,5.1V4.3
			c0-1.6,1.6-2.9,3.6-2.9c1.9,0,3.6,1.3,3.6,2.9v0.7c0,1.6-1.6,2.9-3.6,2.9C44.6,8,43,6.7,43,5.1z M44,4.4V5c0,1.1,1.2,2,2.5,2
			c1.3,0,2.5-0.9,2.5-2V4.4c0-1.1-1.2-2-2.5-2C45.3,2.4,44,3.3,44,4.4z M53.5,14.2h-1.1V0.5h1.1V14.2z"/>
		<path class="st1" d="M63.6,5.4c0,0.3-0.5,0.7-1.2,1.4c-0.5,0.5-1.4,1.2-2.3,1.9l-0.7-0.8c0.8-0.6,1.8-1.4,2.4-2.1
			c0.9-0.9,1-1.3,1-2.5V1.2h1.1v2.2c0,1.1,0.1,1.5,1.1,2.4c0.7,0.6,1.5,1.3,2.2,1.8l-0.6,0.7c-0.8-0.6-1.5-1.2-2-1.6
			C64.1,6,63.7,5.6,63.6,5.4L63.6,5.4z M63.3,13.1H71v0.9h-8.7V9.5h1.1V13.1z M70.6,10.3h-1V0.5h1V10.3z"/>
		<path class="st1" d="M81.4,8h-3.1v2.3c1.6,0,2.9-0.1,4.1-0.3l0.1,0.9c-2.5,0.3-4.6,0.3-9.2,0.3v-0.9c1.5,0,2.8,0,4,0V8h-3V4.3H80
			V2.5h-5.7V1.6H81v3.7h-5.7v1.8h6.1V8z M84.5,14.2h-1.1V0.5h1.1V14.2z"/>
		<path class="st1" d="M95.5,11c-2.5,0.3-4.3,0.3-8.9,0.3v-0.9c1.4,0,2.6,0,3.7,0V7.8c-1.7-0.2-3-1.4-3-2.8V4.2
			c0-1.6,1.6-2.9,3.5-2.9c2,0,3.5,1.3,3.5,2.9v0.7c0,1.4-1.3,2.6-3,2.8v2.6c1.5-0.1,2.8-0.1,4-0.3L95.5,11z M88.3,4.3v0.6
			c0,1.1,1.2,2,2.5,2c1.3,0,2.5-0.9,2.5-2V4.3c0-1.1-1.2-2-2.5-2C89.5,2.3,88.3,3.2,88.3,4.3z M97.6,5.9h2.2v0.9h-2.2v7.4h-1.1V0.5
			h1.1V5.9z"/>
		<path class="st1" d="M111.1,7.1H105V1.3h6.2V7.1z M110.1,2.2H106v4h4.1V2.2z M107,9h8.4v0.9H108v3.4h7.6v0.9H107V9z M115.4,8.2h-1
			V0.5h1V8.2z"/>
		<path class="st1" d="M130.3,7.2v0.9h-12.6V7.2H130.3z M119.5,9.6h8.9v4.6h-8.9V9.6z M119.7,3.7V3.2c0-1.6,2.1-2.4,4.3-2.4
			c2.2,0,4.3,0.8,4.3,2.4v0.5c0,1.6-2.1,2.4-4.3,2.4C121.7,6.1,119.7,5.3,119.7,3.7z M120.6,13.3h6.9v-2.7h-6.9V13.3z M120.7,3.3
			v0.4c0,1,1.7,1.6,3.3,1.6c1.6,0,3.3-0.6,3.3-1.6V3.3c0-1-1.7-1.6-3.3-1.6C122.4,1.7,120.7,2.3,120.7,3.3z"/>
		<path class="st1" d="M143.9,7.7v0.9h-12.6V7.7H143.9z M134.3,13.1h8.1v0.9h-9.2v-4h1.1V13.1z M133.3,3.9V3.4
			c0-1.5,1.9-2.5,4.3-2.5c2.4,0,4.3,1,4.3,2.5v0.6c0,1.5-1.9,2.5-4.3,2.5C135.2,6.5,133.3,5.5,133.3,3.9z M134.4,3.5v0.4
			c0,1,1.5,1.7,3.3,1.7c1.8,0,3.3-0.7,3.3-1.7V3.5c0-1-1.5-1.7-3.3-1.7C135.9,1.7,134.4,2.5,134.4,3.5z"/>
		<path class="st1" d="M161.3,11.4v0.9h-12.6v-0.9H161.3z M157.7,9.9c0.4-1.9,0.6-3.6,0.6-5.7V2.8h-7.9V1.9h9v1.8
			c0,2.5-0.2,4.5-0.6,6.4L157.7,9.9z"/>
		<path class="st1" d="M164.3,1.1v4.4c2.9,0,4.2-0.1,6.5-0.4l0.1,0.9c-2.4,0.3-3.6,0.4-7.7,0.4V1.1H164.3z M173.2,8v3.6h-7.2v1.8
			h7.6v0.9h-8.6v-3.6h7.2V8.9h-7.3V8H173.2z M173.2,3.3h2.1v0.9h-2.1v3h-1.1V0.5h1.1V3.3z"/>
		<path class="st1" d="M185.6,10.9c-2.5,0.3-4.6,0.3-9.2,0.3v-0.9c4.4,0,6.8-0.1,9.1-0.3L185.6,10.9z M177.1,5.1V4.3
			c0-1.6,1.6-2.9,3.6-2.9c1.9,0,3.6,1.3,3.6,2.9v0.7c0,1.6-1.6,2.9-3.6,2.9C178.7,8,177.1,6.7,177.1,5.1z M178.1,4.4V5
			c0,1.1,1.2,2,2.5,2c1.3,0,2.5-0.9,2.5-2V4.4c0-1.1-1.2-2-2.5-2C179.4,2.4,178.1,3.3,178.1,4.4z M187.6,14.2h-1.1V0.5h1.1V14.2z"/>
		<path class="st1" d="M206,7.1V8h-12.6V7.1H206z M204.7,6c-1-0.4-2.3-0.9-3-1.3c-1.3-0.6-1.8-1-1.9-1.3h0c-0.1,0.3-0.6,0.7-1.9,1.3
			c-0.8,0.4-1.9,0.9-3,1.3l-0.4-0.9c1.3-0.5,2.5-1,3.2-1.3c1.3-0.7,1.6-1,1.6-2.1v-1h1.1v1c0,1,0.3,1.4,1.6,2.1
			c0.7,0.4,1.8,0.8,3.2,1.3L204.7,6z M204,11.7v0.5c0,1.6-2,2.4-4.3,2.4c-2.3,0-4.3-0.8-4.3-2.4v-0.5c0-1.6,2-2.4,4.3-2.4
			C202,9.3,204,10.1,204,11.7z M203,12.1v-0.4c0-1-1.6-1.6-3.2-1.6c-1.6,0-3.2,0.6-3.2,1.6v0.4c0,1,1.6,1.6,3.2,1.6
			C201.4,13.7,203,13.1,203,12.1z"/>
		<path class="st1" d="M212.8,11.4V8.2h1.1v3.2h5.8v0.9h-12.6v-0.9H212.8z M213.4,5.2c-0.1,0.3-0.7,0.8-1.8,1.5
			c-0.9,0.6-2.1,1.3-3.2,1.9l-0.6-0.8c1.3-0.7,2.5-1.4,3.2-1.8c1.5-1,1.8-1.5,1.8-3.1V1.4h1.1v1.5c0,1.6,0.3,2.1,1.8,3.1
			c0.7,0.5,1.8,1.2,3.1,1.8l-0.6,0.8c-1.1-0.6-2.3-1.3-3.2-1.9C214.1,6,213.5,5.5,213.4,5.2L213.4,5.2z"/>
		<path class="st1" d="M231.4,1.6v4.1h-7.8v2.2h8.1v0.9h-4.2v2.6h5.8v0.9h-12.6v-0.9h5.8V8.8h-3.9v-4h7.8V2.5h-7.8V1.6H231.4z"/>
		<path class="st1" d="M245.7,6.9c0,2.5-1.3,4-3.4,4s-3.4-1.5-3.4-4V5.5c0-2.5,1.3-4,3.4-4s3.4,1.5,3.4,4V6.9z M244.6,5.7
			c0-2.3-0.9-3.2-2.4-3.2s-2.4,0.9-2.4,3.2v1c0,2.3,0.9,3.2,2.4,3.2s2.4-0.9,2.4-3.2V5.7z M249.4,14.2h-1.1V0.5h1.1V14.2z"/>
		<path class="st1" d="M263.2,14.2h-1V6.4H259v0.5c0,2.5-1.3,4-3.4,4c-2.1,0-3.4-1.5-3.4-4V5.5c0-2.5,1.3-4,3.4-4
			c2.1,0,3.4,1.5,3.4,3.9h3.1V0.5h1V14.2z M258,5.7c0-2.3-0.9-3.2-2.3-3.2c-1.4,0-2.3,0.9-2.3,3.2v1c0,2.3,0.9,3.2,2.3,3.2
			c1.4,0,2.3-0.9,2.3-3.2V5.7z"/>
		<path class="st1" d="M269.9,5c0,0.2-0.4,0.6-1.1,1.1c-0.5,0.4-1.5,1.2-2.4,1.7L265.9,7c0.9-0.6,1.8-1.2,2.5-1.8
			c0.9-0.7,1-1.1,1-2.1V2.3h-3.1V1.4h7.2v0.9h-3V3c0,1.2,0.1,1.4,1.1,2.2c0.6,0.5,1.4,1,2.2,1.5l-0.6,0.8c-0.6-0.4-1.3-0.9-1.9-1.3
			C270.5,5.6,270,5.1,269.9,5L269.9,5z M276.8,8.3v5.9h-8.4V8.3h1v1.9h6.3V8.3H276.8z M275.7,13.3v-2.1h-6.3v2.1H275.7z M276.8,7.5
			h-1v-7h1V7.5z"/>
		<path class="st1" d="M281.3,9.5h2c1.4,0,2.9-0.1,4.6-0.4l0.1,0.9c-1.6,0.3-3.4,0.4-4.8,0.4h-2.9V1.7h1.1V9.5z M290.4,14.2h-1.1
			V0.5h1.1V14.2z"/>
		<path class="st1" d="M293.5,1.8h6.2v1h-5.2v6.9h1.8c1.5,0,3-0.1,4.7-0.4l0.1,0.9c-1.6,0.3-3.4,0.4-5.1,0.4h-2.6V1.8z M303.4,5.6
			h2.3v0.9h-2.3v7.7h-1.1V0.5h1.1V5.6z"/>
		<path class="st1" d="M306.9,11.5h1.5V13h-1.5V11.5z"/>
	</g>
</g>
<g>
</g>
<g>
</g>
<g>
</g>
<g>
</g>
<g>
</g>
<g>
</g>
<g>
</g>
<g>
</g>
<g>
</g>
<g>
</g>
<g>
</g>
<g>
</g>
<g>
</g>
<g>
</g>
<g>
</g>
</svg>
